<?xml version="1.0"?>
<!-- Created with xTool Creative Space (https://www.xtool.com/pages/software) -->
<svg xmlns="http://www.w3.org/2000/svg" xmlns:xlink="http://www.w3.org/1999/xlink" xmlns:xcs="https://www.xtool.com/pages/software" version="1.1" preserveAspectRatio="xMinYMin meet" width="489.7912116218434mm" height="206.1999969482423mm" viewBox="4.817661059558468 28.906510591469637 489.7912116218434 206.1999969482423"><style></style>
<path transform="matrix(-1,1.89882e-15,-1.89882e-15,-1,171.017658,244.256517)" stroke="#000000" fill="none" vector-effect="non-scaling-stroke" data-view-type="laser" d="M 13.100 212.350 H 19.000 C 19.100 212.350 19.000 212.250 19.000 212.350 V 215.250 C 19.000 215.305 19.045 215.350 19.100 215.350 H 25.100 C 25.155 215.350 25.200 215.305 25.200 215.250 V 212.350 C 25.200 212.250 25.100 212.350 25.200 212.350 H 31.000 C 31.100 212.350 31.000 212.250 31.000 212.350 V 215.250 C 31.000 215.305 31.045 215.350 31.100 215.350 H 37.100 C 37.155 215.350 37.200 215.305 37.200 215.250 V 212.350 C 37.200 212.250 37.100 212.350 37.200 212.350 H 43.000 C 43.100 212.350 43.000 212.250 43.000 212.350 V 215.250 C 43.000 215.305 43.045 215.350 43.100 215.350 H 49.100 C 49.155 215.350 49.200 215.305 49.200 215.250 V 212.350 C 49.200 212.250 49.100 212.350 49.200 212.350 H 55.000 C 55.100 212.350 55.000 212.250 55.000 212.350 V 215.250 C 55.000 215.305 55.045 215.350 55.100 215.350 H 61.100 C 61.155 215.350 61.200 215.305 61.200 215.250 V 212.350 C 61.200 212.250 61.100 212.350 61.200 212.350 H 67.000 C 67.100 212.350 67.000 212.250 67.000 212.350 V 215.250 C 67.000 215.305 67.045 215.350 67.100 215.350 H 73.100 C 73.155 215.350 73.200 215.305 73.200 215.250 V 212.350 C 73.200 212.250 73.100 212.350 73.200 212.350 H 79.000 C 79.100 212.350 79.000 212.250 79.000 212.350 V 215.250 C 79.000 215.305 79.045 215.350 79.100 215.350 H 85.100 C 85.155 215.350 85.200 215.305 85.200 215.250 V 212.350 C 85.200 212.250 85.100 212.350 85.200 212.350 H 91.000 C 91.100 212.350 91.000 212.250 91.000 212.350 V 215.250 C 91.000 215.305 91.045 215.350 91.100 215.350 H 97.100 C 97.155 215.350 97.200 215.305 97.200 215.250 V 212.350 C 97.200 212.250 97.100 212.350 97.200 212.350 H 103.000 C 103.100 212.350 103.000 212.250 103.000 212.350 V 215.250 C 103.000 215.305 103.045 215.350 103.100 215.350 H 109.100 C 109.155 215.350 109.200 215.305 109.200 215.250 V 212.350 C 109.200 212.250 109.100 212.350 109.200 212.350 H 115.000 C 115.100 212.350 115.000 212.250 115.000 212.350 V 215.250 C 115.000 215.305 115.045 215.350 115.100 215.350 H 121.100 C 121.155 215.350 121.200 215.305 121.200 215.250 V 212.350 C 121.200 212.250 121.100 212.350 121.200 212.350 H 127.000 C 127.100 212.350 127.000 212.250 127.000 212.350 V 215.250 C 127.000 215.305 127.045 215.350 127.100 215.350 H 133.100 C 133.155 215.350 133.200 215.305 133.200 215.250 V 212.350 C 133.200 212.250 133.100 212.350 133.200 212.350 H 139.000 C 139.100 212.350 139.000 212.250 139.000 212.350 V 215.250 C 139.000 215.305 139.045 215.350 139.100 215.350 H 145.100 C 145.155 215.350 145.200 215.305 145.200 215.250 V 212.350 C 145.200 212.250 145.100 212.350 145.200 212.350 H 151.000 C 151.100 212.350 151.000 212.250 151.000 212.350 V 215.250 C 151.000 215.305 151.045 215.350 151.100 215.350 H 157.100 C 157.155 215.350 157.200 215.305 157.200 215.250 V 212.350 C 157.200 212.250 157.100 212.350 157.200 212.350 H 163.100 C 163.155 212.350 163.200 212.305 163.200 212.250 V 206.850 C 163.200 206.750 163.100 206.850 163.200 206.850 H 166.100 C 166.155 206.850 166.200 206.805 166.200 206.750 V 200.750 C 166.200 200.695 166.155 200.650 166.100 200.650 H 163.200 C 163.100 200.650 163.200 200.750 163.200 200.650 V 194.850 C 163.200 194.750 163.100 194.850 163.200 194.850 H 166.100 C 166.155 194.850 166.200 194.805 166.200 194.750 V 188.750 C 166.200 188.695 166.155 188.650 166.100 188.650 H 163.200 C 163.100 188.650 163.200 188.750 163.200 188.650 V 182.850 C 163.200 182.750 163.100 182.850 163.200 182.850 H 166.100 C 166.155 182.850 166.200 182.805 166.200 182.750 V 176.750 C 166.200 176.695 166.155 176.650 166.100 176.650 H 163.200 C 163.100 176.650 163.200 176.750 163.200 176.650 V 170.850 C 163.200 170.750 163.100 170.850 163.200 170.850 H 166.100 C 166.155 170.850 166.200 170.805 166.200 170.750 V 164.750 C 166.200 164.695 166.155 164.650 166.100 164.650 H 163.200 C 163.100 164.650 163.200 164.750 163.200 164.650 V 158.850 C 163.200 158.750 163.100 158.850 163.200 158.850 H 166.100 C 166.155 158.850 166.200 158.805 166.200 158.750 V 152.750 C 166.200 152.695 166.155 152.650 166.100 152.650 H 163.200 C 163.100 152.650 163.200 152.750 163.200 152.650 V 147.250 C 163.200 147.201 163.165 147.160 163.117 147.152 L 156.168 145.926 C 156.069 145.909 156.150 146.025 156.168 145.926 L 156.671 143.070 C 156.681 143.016 156.644 142.964 156.590 142.954 L 150.681 141.912 C 150.627 141.903 150.575 141.939 150.565 141.994 L 150.062 144.849 C 150.044 144.948 150.160 144.867 150.062 144.849 L 144.350 143.842 C 144.251 143.825 144.333 143.941 144.350 143.842 L 144.853 140.986 C 144.863 140.932 144.827 140.880 144.772 140.871 L 138.864 139.829 C 138.809 139.819 138.757 139.855 138.748 139.910 L 138.244 142.766 C 138.227 142.864 138.343 142.783 138.244 142.766 L 132.532 141.759 C 132.434 141.741 132.515 141.857 132.532 141.759 L 133.036 138.903 C 133.045 138.848 133.009 138.796 132.955 138.787 L 127.046 137.745 C 126.991 137.735 126.940 137.772 126.930 137.826 L 126.426 140.682 C 126.409 140.780 126.525 140.699 126.426 140.682 L 120.715 139.675 C 120.616 139.657 120.697 139.773 120.715 139.675 L 121.218 136.819 C 121.228 136.764 121.191 136.713 121.137 136.703 L 115.228 135.661 C 115.174 135.651 115.122 135.688 115.112 135.742 L 114.609 138.598 C 114.591 138.697 114.707 138.615 114.609 138.598 L 108.897 137.591 C 108.798 137.574 108.879 137.689 108.897 137.591 L 109.400 134.735 C 109.410 134.681 109.374 134.629 109.319 134.619 L 103.410 133.577 C 103.356 133.568 103.304 133.604 103.295 133.658 L 102.791 136.514 C 102.774 136.613 102.889 136.532 102.791 136.514 L 97.079 135.507 C 96.981 135.490 97.062 135.606 97.079 135.507 L 97.583 132.651 C 97.592 132.597 97.556 132.545 97.502 132.535 L 91.593 131.494 C 91.538 131.484 91.486 131.520 91.477 131.575 L 90.973 134.431 C 90.956 134.529 91.072 134.448 90.973 134.431 L 85.261 133.423 C 85.163 133.406 85.244 133.522 85.261 133.423 L 85.765 130.567 C 85.775 130.513 85.738 130.461 85.684 130.452 L 79.775 129.410 C 79.721 129.400 79.669 129.436 79.659 129.491 L 79.156 132.347 C 79.138 132.445 79.254 132.364 79.156 132.347 L 73.444 131.340 C 73.345 131.322 73.426 131.438 73.444 131.340 L 73.947 128.484 C 73.957 128.429 73.921 128.377 73.866 128.368 L 67.957 127.326 C 67.903 127.316 67.851 127.353 67.842 127.407 L 67.338 130.263 C 67.321 130.361 67.436 130.280 67.338 130.263 L 61.626 129.256 C 61.528 129.238 61.609 129.354 61.626 129.256 L 62.130 126.400 C 62.139 126.346 62.103 126.294 62.049 126.284 L 56.140 125.242 C 56.085 125.233 56.033 125.269 56.024 125.323 L 55.520 128.179 C 55.503 128.278 55.619 128.197 55.520 128.179 L 49.808 127.172 C 49.710 127.155 49.791 127.271 49.808 127.172 L 50.312 124.316 C 50.322 124.262 50.285 124.210 50.231 124.200 L 44.322 123.158 C 44.268 123.149 44.216 123.185 44.206 123.240 L 43.703 126.095 C 43.685 126.194 43.801 126.113 43.703 126.095 L 37.991 125.088 C 37.892 125.071 37.973 125.187 37.991 125.088 L 38.494 122.232 C 38.504 122.178 38.468 122.126 38.413 122.117 L 32.504 121.075 C 32.450 121.065 32.398 121.101 32.388 121.156 L 31.885 124.012 C 31.867 124.110 31.983 124.029 31.885 124.012 L 26.173 123.005 C 26.074 122.987 26.156 123.103 26.173 123.005 L 26.677 120.149 C 26.686 120.094 26.650 120.042 26.595 120.033 L 20.687 118.991 C 20.632 118.981 20.580 119.018 20.571 119.072 L 20.067 121.928 C 20.050 122.026 20.166 121.945 20.067 121.928 L 13.117 120.702 C 13.056 120.692 13.000 120.739 13.000 120.801 V 127.425 C 13.000 127.525 13.100 127.425 13.000 127.425 H 10.100 C 10.045 127.425 10.000 127.470 10.000 127.525 V 133.525 C 10.000 133.581 10.045 133.625 10.100 133.625 H 13.000 C 13.100 133.625 13.000 133.525 13.000 133.625 V 139.425 C 13.000 139.525 13.100 139.425 13.000 139.425 H 10.100 C 10.045 139.425 10.000 139.470 10.000 139.525 V 145.525 C 10.000 145.581 10.045 145.625 10.100 145.625 H 13.000 C 13.100 145.625 13.000 145.525 13.000 145.625 V 151.425 C 13.000 151.525 13.100 151.425 13.000 151.425 H 10.100 C 10.045 151.425 10.000 151.470 10.000 151.525 V 157.525 C 10.000 157.581 10.045 157.625 10.100 157.625 H 13.000 C 13.100 157.625 13.000 157.525 13.000 157.625 V 163.425 C 13.000 163.525 13.100 163.425 13.000 163.425 H 10.100 C 10.045 163.425 10.000 163.470 10.000 163.525 V 169.525 C 10.000 169.581 10.045 169.625 10.100 169.625 H 13.000 C 13.100 169.625 13.000 169.525 13.000 169.625 V 175.425 C 13.000 175.525 13.100 175.425 13.000 175.425 H 10.100 C 10.045 175.425 10.000 175.470 10.000 175.525 V 181.525 C 10.000 181.581 10.045 181.625 10.100 181.625 H 13.000 C 13.100 181.625 13.000 181.525 13.000 181.625 V 187.425 C 13.000 187.525 13.100 187.425 13.000 187.425 H 10.100 C 10.045 187.425 10.000 187.470 10.000 187.525 V 193.525 C 10.000 193.581 10.045 193.625 10.100 193.625 H 13.000 C 13.100 193.625 13.000 193.525 13.000 193.625 V 199.425 C 13.000 199.525 13.100 199.425 13.000 199.425 H 10.100 C 10.045 199.425 10.000 199.470 10.000 199.525 V 205.525 C 10.000 205.581 10.045 205.625 10.100 205.625 H 13.000 C 13.100 205.625 13.000 205.525 13.000 205.625 V 212.250 C 13.000 212.305 13.045 212.350 13.100 212.350 Z" fill-rule="nonzero"></path><path transform="matrix(1,-2.31482e-15,2.31482e-15,1,-162.882336,-9.490824)" stroke="#000000" fill="none" vector-effect="non-scaling-stroke" data-view-type="laser" d="M 170.800 212.350 H 176.700 C 176.800 212.350 176.700 212.250 176.700 212.350 V 215.250 C 176.700 215.305 176.745 215.350 176.800 215.350 H 182.800 C 182.855 215.350 182.900 215.305 182.900 215.250 V 212.350 C 182.900 212.250 182.800 212.350 182.900 212.350 H 188.700 C 188.800 212.350 188.700 212.250 188.700 212.350 V 215.250 C 188.700 215.305 188.745 215.350 188.800 215.350 H 194.800 C 194.855 215.350 194.900 215.305 194.900 215.250 V 212.350 C 194.900 212.250 194.800 212.350 194.900 212.350 H 200.700 C 200.800 212.350 200.700 212.250 200.700 212.350 V 215.250 C 200.700 215.305 200.745 215.350 200.800 215.350 H 206.800 C 206.855 215.350 206.900 215.305 206.900 215.250 V 212.350 C 206.900 212.250 206.800 212.350 206.900 212.350 H 212.700 C 212.800 212.350 212.700 212.250 212.700 212.350 V 215.250 C 212.700 215.305 212.745 215.350 212.800 215.350 H 218.800 C 218.855 215.350 218.900 215.305 218.900 215.250 V 212.350 C 218.900 212.250 218.800 212.350 218.900 212.350 H 224.700 C 224.800 212.350 224.700 212.250 224.700 212.350 V 215.250 C 224.700 215.305 224.745 215.350 224.800 215.350 H 230.800 C 230.855 215.350 230.900 215.305 230.900 215.250 V 212.350 C 230.900 212.250 230.800 212.350 230.900 212.350 H 236.700 C 236.800 212.350 236.700 212.250 236.700 212.350 V 215.250 C 236.700 215.305 236.745 215.350 236.800 215.350 H 242.800 C 242.855 215.350 242.900 215.305 242.900 215.250 V 212.350 C 242.900 212.250 242.800 212.350 242.900 212.350 H 248.700 C 248.800 212.350 248.700 212.250 248.700 212.350 V 215.250 C 248.700 215.305 248.745 215.350 248.800 215.350 H 254.800 C 254.855 215.350 254.900 215.305 254.900 215.250 V 212.350 C 254.900 212.250 254.800 212.350 254.900 212.350 H 260.700 C 260.800 212.350 260.700 212.250 260.700 212.350 V 215.250 C 260.700 215.305 260.745 215.350 260.800 215.350 H 266.800 C 266.855 215.350 266.900 215.305 266.900 215.250 V 212.350 C 266.900 212.250 266.800 212.350 266.900 212.350 H 272.700 C 272.800 212.350 272.700 212.250 272.700 212.350 V 215.250 C 272.700 215.305 272.745 215.350 272.800 215.350 H 278.800 C 278.855 215.350 278.900 215.305 278.900 215.250 V 212.350 C 278.900 212.250 278.800 212.350 278.900 212.350 H 284.700 C 284.800 212.350 284.700 212.250 284.700 212.350 V 215.250 C 284.700 215.305 284.745 215.350 284.800 215.350 H 290.800 C 290.855 215.350 290.900 215.305 290.900 215.250 V 212.350 C 290.900 212.250 290.800 212.350 290.900 212.350 H 296.700 C 296.800 212.350 296.700 212.250 296.700 212.350 V 215.250 C 296.700 215.305 296.745 215.350 296.800 215.350 H 302.800 C 302.855 215.350 302.900 215.305 302.900 215.250 V 212.350 C 302.900 212.250 302.800 212.350 302.900 212.350 H 308.700 C 308.800 212.350 308.700 212.250 308.700 212.350 V 215.250 C 308.700 215.305 308.745 215.350 308.800 215.350 H 314.800 C 314.855 215.350 314.900 215.305 314.900 215.250 V 212.350 C 314.900 212.250 314.800 212.350 314.900 212.350 H 320.800 C 320.855 212.350 320.900 212.305 320.900 212.250 V 206.850 C 320.900 206.750 320.800 206.850 320.900 206.850 H 323.800 C 323.855 206.850 323.900 206.805 323.900 206.750 V 200.750 C 323.900 200.695 323.855 200.650 323.800 200.650 H 320.900 C 320.800 200.650 320.900 200.750 320.900 200.650 V 194.850 C 320.900 194.750 320.800 194.850 320.900 194.850 H 323.800 C 323.855 194.850 323.900 194.805 323.900 194.750 V 188.750 C 323.900 188.695 323.855 188.650 323.800 188.650 H 320.900 C 320.800 188.650 320.900 188.750 320.900 188.650 V 182.850 C 320.900 182.750 320.800 182.850 320.900 182.850 H 323.800 C 323.855 182.850 323.900 182.805 323.900 182.750 V 176.750 C 323.900 176.695 323.855 176.650 323.800 176.650 H 320.900 C 320.800 176.650 320.900 176.750 320.900 176.650 V 170.850 C 320.900 170.750 320.800 170.850 320.900 170.850 H 323.800 C 323.855 170.850 323.900 170.805 323.900 170.750 V 164.750 C 323.900 164.695 323.855 164.650 323.800 164.650 H 320.900 C 320.800 164.650 320.900 164.750 320.900 164.650 V 158.850 C 320.900 158.750 320.800 158.850 320.900 158.850 H 323.800 C 323.855 158.850 323.900 158.805 323.900 158.750 V 152.750 C 323.900 152.695 323.855 152.650 323.800 152.650 H 320.900 C 320.800 152.650 320.900 152.750 320.900 152.650 V 147.250 C 320.900 147.201 320.865 147.160 320.817 147.152 L 313.868 145.926 C 313.769 145.909 313.850 146.025 313.868 145.926 L 314.371 143.070 C 314.381 143.016 314.344 142.964 314.290 142.954 L 308.381 141.912 C 308.327 141.903 308.275 141.939 308.265 141.994 L 307.762 144.849 C 307.744 144.948 307.860 144.867 307.762 144.849 L 302.050 143.842 C 301.951 143.825 302.033 143.941 302.050 143.842 L 302.553 140.986 C 302.563 140.932 302.527 140.880 302.472 140.871 L 296.564 139.829 C 296.509 139.819 296.457 139.855 296.448 139.910 L 295.944 142.766 C 295.927 142.864 296.043 142.783 295.944 142.766 L 290.232 141.759 C 290.134 141.741 290.215 141.857 290.232 141.759 L 290.736 138.903 C 290.745 138.848 290.709 138.796 290.655 138.787 L 284.746 137.745 C 284.691 137.735 284.640 137.772 284.630 137.826 L 284.126 140.682 C 284.109 140.780 284.225 140.699 284.126 140.682 L 278.415 139.675 C 278.316 139.657 278.397 139.773 278.415 139.675 L 278.918 136.819 C 278.928 136.764 278.891 136.713 278.837 136.703 L 272.928 135.661 C 272.874 135.651 272.822 135.688 272.812 135.742 L 272.309 138.598 C 272.291 138.697 272.407 138.615 272.309 138.598 L 266.597 137.591 C 266.498 137.574 266.579 137.689 266.597 137.591 L 267.100 134.735 C 267.110 134.681 267.074 134.629 267.019 134.619 L 261.110 133.577 C 261.056 133.568 261.004 133.604 260.995 133.658 L 260.491 136.514 C 260.474 136.613 260.589 136.532 260.491 136.514 L 254.779 135.507 C 254.681 135.490 254.762 135.606 254.779 135.507 L 255.283 132.651 C 255.292 132.597 255.256 132.545 255.202 132.535 L 249.293 131.494 C 249.238 131.484 249.186 131.520 249.177 131.575 L 248.673 134.431 C 248.656 134.529 248.772 134.448 248.673 134.431 L 242.961 133.423 C 242.863 133.406 242.944 133.522 242.961 133.423 L 243.465 130.567 C 243.475 130.513 243.438 130.461 243.384 130.452 L 237.475 129.410 C 237.421 129.400 237.369 129.436 237.359 129.491 L 236.856 132.347 C 236.838 132.445 236.954 132.364 236.856 132.347 L 231.144 131.340 C 231.045 131.322 231.126 131.438 231.144 131.340 L 231.647 128.484 C 231.657 128.429 231.621 128.377 231.566 128.368 L 225.657 127.326 C 225.603 127.316 225.551 127.353 225.542 127.407 L 225.038 130.263 C 225.021 130.361 225.136 130.280 225.038 130.263 L 219.326 129.256 C 219.228 129.238 219.309 129.354 219.326 129.256 L 219.830 126.400 C 219.839 126.346 219.803 126.294 219.749 126.284 L 213.840 125.242 C 213.785 125.233 213.733 125.269 213.724 125.323 L 213.220 128.179 C 213.203 128.278 213.319 128.197 213.220 128.179 L 207.508 127.172 C 207.410 127.155 207.491 127.271 207.508 127.172 L 208.012 124.316 C 208.022 124.262 207.985 124.210 207.931 124.200 L 202.022 123.158 C 201.968 123.149 201.916 123.185 201.906 123.240 L 201.403 126.095 C 201.385 126.194 201.501 126.113 201.403 126.095 L 195.691 125.088 C 195.592 125.071 195.673 125.187 195.691 125.088 L 196.194 122.232 C 196.204 122.178 196.168 122.126 196.113 122.117 L 190.204 121.075 C 190.150 121.065 190.098 121.101 190.088 121.156 L 189.585 124.012 C 189.567 124.110 189.683 124.029 189.585 124.012 L 183.873 123.005 C 183.774 122.987 183.856 123.103 183.873 123.005 L 184.377 120.149 C 184.386 120.094 184.350 120.042 184.295 120.033 L 178.387 118.991 C 178.332 118.981 178.280 119.018 178.271 119.072 L 177.767 121.928 C 177.750 122.026 177.866 121.945 177.767 121.928 L 170.817 120.702 C 170.756 120.692 170.700 120.739 170.700 120.801 V 127.425 C 170.700 127.525 170.800 127.425 170.700 127.425 H 167.800 C 167.745 127.425 167.700 127.470 167.700 127.525 V 133.525 C 167.700 133.581 167.745 133.625 167.800 133.625 H 170.700 C 170.800 133.625 170.700 133.525 170.700 133.625 V 139.425 C 170.700 139.525 170.800 139.425 170.700 139.425 H 167.800 C 167.745 139.425 167.700 139.470 167.700 139.525 V 145.525 C 167.700 145.581 167.745 145.625 167.800 145.625 H 170.700 C 170.800 145.625 170.700 145.525 170.700 145.625 V 151.425 C 170.700 151.525 170.800 151.425 170.700 151.425 H 167.800 C 167.745 151.425 167.700 151.470 167.700 151.525 V 157.525 C 167.700 157.581 167.745 157.625 167.800 157.625 H 170.700 C 170.800 157.625 170.700 157.525 170.700 157.625 V 163.425 C 170.700 163.525 170.800 163.425 170.700 163.425 H 167.800 C 167.745 163.425 167.700 163.470 167.700 163.525 V 169.525 C 167.700 169.581 167.745 169.625 167.800 169.625 H 170.700 C 170.800 169.625 170.700 169.525 170.700 169.625 V 175.425 C 170.700 175.525 170.800 175.425 170.700 175.425 H 167.800 C 167.745 175.425 167.700 175.470 167.700 175.525 V 181.525 C 167.700 181.581 167.745 181.625 167.800 181.625 H 170.700 C 170.800 181.625 170.700 181.525 170.700 181.625 V 187.425 C 170.700 187.525 170.800 187.425 170.700 187.425 H 167.800 C 167.745 187.425 167.700 187.470 167.700 187.525 V 193.525 C 167.700 193.581 167.745 193.625 167.800 193.625 H 170.700 C 170.800 193.625 170.700 193.525 170.700 193.625 V 199.425 C 170.700 199.525 170.800 199.425 170.700 199.425 H 167.800 C 167.745 199.425 167.700 199.470 167.700 199.525 V 205.525 C 167.700 205.581 167.745 205.625 167.800 205.625 H 170.700 C 170.800 205.625 170.700 205.525 170.700 205.625 V 212.250 C 170.700 212.305 170.745 212.350 170.800 212.350 Z" fill-rule="nonzero"></path><path transform="matrix(1,0,0,1,-163.340454,18.906511)" stroke="#000000" fill="none" vector-effect="non-scaling-stroke" data-view-type="laser" d="M 329.350 216.200 H 335.350 C 335.405 216.200 335.450 216.155 335.450 216.100 V 213.200 C 335.450 213.100 335.350 213.200 335.450 213.200 H 341.250 C 341.350 213.200 341.250 213.100 341.250 213.200 V 216.100 C 341.250 216.155 341.295 216.200 341.350 216.200 H 347.350 C 347.405 216.200 347.450 216.155 347.450 216.100 V 213.200 C 347.450 213.100 347.350 213.200 347.450 213.200 H 353.250 C 353.350 213.200 353.250 213.100 353.250 213.200 V 216.100 C 353.250 216.155 353.295 216.200 353.350 216.200 H 359.350 C 359.405 216.200 359.450 216.155 359.450 216.100 V 213.200 C 359.450 213.100 359.350 213.200 359.450 213.200 H 365.250 C 365.350 213.200 365.250 213.100 365.250 213.200 V 216.100 C 365.250 216.155 365.295 216.200 365.350 216.200 H 371.350 C 371.405 216.200 371.450 216.155 371.450 216.100 V 213.200 C 371.450 213.100 371.350 213.200 371.450 213.200 H 377.250 C 377.350 213.200 377.250 213.100 377.250 213.200 V 216.100 C 377.250 216.155 377.295 216.200 377.350 216.200 H 383.350 C 383.405 216.200 383.450 216.155 383.450 216.100 V 213.200 C 383.450 213.100 383.350 213.200 383.450 213.200 H 389.250 C 389.350 213.200 389.250 213.100 389.250 213.200 V 216.100 C 389.250 216.155 389.295 216.200 389.350 216.200 H 395.350 C 395.405 216.200 395.450 216.155 395.450 216.100 V 213.200 C 395.450 213.100 395.350 213.200 395.450 213.200 H 401.250 C 401.350 213.200 401.250 213.100 401.250 213.200 V 216.100 C 401.250 216.155 401.295 216.200 401.350 216.200 H 407.350 C 407.405 216.200 407.450 216.155 407.450 216.100 V 213.200 C 407.450 213.100 407.350 213.200 407.450 213.200 H 413.250 C 413.350 213.200 413.250 213.100 413.250 213.200 V 216.100 C 413.250 216.155 413.295 216.200 413.350 216.200 H 419.350 C 419.405 216.200 419.450 216.155 419.450 216.100 V 213.200 C 419.450 213.100 419.350 213.200 419.450 213.200 H 425.250 C 425.350 213.200 425.250 213.100 425.250 213.200 V 216.100 C 425.250 216.155 425.295 216.200 425.350 216.200 H 431.350 C 431.405 216.200 431.450 216.155 431.450 216.100 V 213.200 C 431.450 213.100 431.350 213.200 431.450 213.200 H 437.250 C 437.350 213.200 437.250 213.100 437.250 213.200 V 216.100 C 437.250 216.155 437.295 216.200 437.350 216.200 H 443.350 C 443.405 216.200 443.450 216.155 443.450 216.100 V 213.200 C 443.450 213.100 443.350 213.200 443.450 213.200 H 449.250 C 449.350 213.200 449.250 213.100 449.250 213.200 V 216.100 C 449.250 216.155 449.295 216.200 449.350 216.200 H 455.350 C 455.405 216.200 455.450 216.155 455.450 216.100 V 213.200 C 455.450 213.100 455.350 213.200 455.450 213.200 H 461.250 C 461.350 213.200 461.250 213.100 461.250 213.200 V 216.100 C 461.250 216.155 461.295 216.200 461.350 216.200 H 467.350 C 467.405 216.200 467.450 216.155 467.450 216.100 V 213.200 C 467.450 213.100 467.350 213.200 467.450 213.200 H 473.250 C 473.350 213.200 473.250 213.100 473.250 213.200 V 216.100 C 473.250 216.155 473.295 216.200 473.350 216.200 H 479.350 H 482.350 C 482.405 216.200 482.450 216.155 482.450 216.100 V 213.100 V 206.100 C 482.450 206.045 482.405 206.000 482.350 206.000 H 479.450 C 479.350 206.000 479.450 206.100 479.450 206.000 V 200.200 C 479.450 200.100 479.350 200.200 479.450 200.200 H 482.350 C 482.405 200.200 482.450 200.155 482.450 200.100 V 194.100 C 482.450 194.045 482.405 194.000 482.350 194.000 H 479.450 C 479.350 194.000 479.450 194.100 479.450 194.000 V 188.200 C 479.450 188.100 479.350 188.200 479.450 188.200 H 482.350 C 482.405 188.200 482.450 188.155 482.450 188.100 V 182.100 C 482.450 182.045 482.405 182.000 482.350 182.000 H 479.450 C 479.350 182.000 479.450 182.100 479.450 182.000 V 176.200 C 479.450 176.100 479.350 176.200 479.450 176.200 H 482.350 C 482.405 176.200 482.450 176.155 482.450 176.100 V 170.100 C 482.450 170.045 482.405 170.000 482.350 170.000 H 479.450 C 479.350 170.000 479.450 170.100 479.450 170.000 V 164.200 C 479.450 164.100 479.350 164.200 479.450 164.200 H 482.350 C 482.405 164.200 482.450 164.155 482.450 164.100 V 158.100 C 482.450 158.045 482.405 158.000 482.350 158.000 H 479.450 C 479.350 158.000 479.450 158.100 479.450 158.000 V 152.200 C 479.450 152.100 479.350 152.200 479.450 152.200 H 482.350 C 482.405 152.200 482.450 152.155 482.450 152.100 V 146.100 C 482.450 146.045 482.405 146.000 482.350 146.000 H 479.450 C 479.350 146.000 479.450 146.100 479.450 146.000 V 140.200 C 479.450 140.100 479.350 140.200 479.450 140.200 H 482.350 C 482.405 140.200 482.450 140.155 482.450 140.100 V 134.100 C 482.450 134.045 482.405 134.000 482.350 134.000 H 479.450 C 479.350 134.000 479.450 134.100 479.450 134.000 V 128.200 C 479.450 128.100 479.350 128.200 479.450 128.200 H 482.350 C 482.405 128.200 482.450 128.155 482.450 128.100 V 122.100 C 482.450 122.045 482.405 122.000 482.350 122.000 H 479.450 C 479.350 122.000 479.450 122.100 479.450 122.000 V 116.200 C 479.450 116.100 479.350 116.200 479.450 116.200 H 482.350 C 482.405 116.200 482.450 116.155 482.450 116.100 V 110.100 C 482.450 110.045 482.405 110.000 482.350 110.000 H 479.450 C 479.350 110.000 479.450 110.100 479.450 110.000 V 104.200 C 479.450 104.100 479.350 104.200 479.450 104.200 H 482.350 C 482.405 104.200 482.450 104.155 482.450 104.100 V 98.100 C 482.450 98.045 482.405 98.000 482.350 98.000 H 479.450 C 479.350 98.000 479.450 98.100 479.450 98.000 V 92.200 C 479.450 92.100 479.350 92.200 479.450 92.200 H 482.350 C 482.405 92.200 482.450 92.155 482.450 92.100 V 86.100 C 482.450 86.045 482.405 86.000 482.350 86.000 H 479.450 C 479.350 86.000 479.450 86.100 479.450 86.000 V 80.200 C 479.450 80.100 479.350 80.200 479.450 80.200 H 482.350 C 482.405 80.200 482.450 80.155 482.450 80.100 V 74.100 C 482.450 74.045 482.405 74.000 482.350 74.000 H 479.450 C 479.350 74.000 479.450 74.100 479.450 74.000 V 68.200 C 479.450 68.100 479.350 68.200 479.450 68.200 H 482.350 C 482.405 68.200 482.450 68.155 482.450 68.100 V 62.100 C 482.450 62.045 482.405 62.000 482.350 62.000 H 479.450 C 479.350 62.000 479.450 62.100 479.450 62.000 V 56.200 C 479.450 56.100 479.350 56.200 479.450 56.200 H 482.350 C 482.405 56.200 482.450 56.155 482.450 56.100 V 50.100 C 482.450 50.045 482.405 50.000 482.350 50.000 H 479.450 C 479.350 50.000 479.450 50.100 479.450 50.000 V 44.200 C 479.450 44.100 479.350 44.200 479.450 44.200 H 482.350 C 482.405 44.200 482.450 44.155 482.450 44.100 V 38.100 C 482.450 38.045 482.405 38.000 482.350 38.000 H 479.450 C 479.350 38.000 479.450 38.100 479.450 38.000 V 32.200 C 479.450 32.100 479.350 32.200 479.450 32.200 H 482.350 C 482.405 32.200 482.450 32.155 482.450 32.100 V 26.100 C 482.450 26.045 482.405 26.000 482.350 26.000 H 479.450 C 479.350 26.000 479.450 26.100 479.450 26.000 V 20.200 C 479.450 20.100 479.350 20.200 479.450 20.200 H 482.350 C 482.405 20.200 482.450 20.155 482.450 20.100 V 13.100 V 10.100 C 482.450 10.045 482.405 10.000 482.350 10.000 H 479.350 H 473.350 C 473.295 10.000 473.250 10.045 473.250 10.100 V 13.000 C 473.250 13.100 473.350 13.000 473.250 13.000 H 467.450 C 467.350 13.000 467.450 13.100 467.450 13.000 V 10.100 C 467.450 10.045 467.405 10.000 467.350 10.000 H 461.350 C 461.295 10.000 461.250 10.045 461.250 10.100 V 13.000 C 461.250 13.100 461.350 13.000 461.250 13.000 H 455.450 C 455.350 13.000 455.450 13.100 455.450 13.000 V 10.100 C 455.450 10.045 455.405 10.000 455.350 10.000 H 449.350 C 449.295 10.000 449.250 10.045 449.250 10.100 V 13.000 C 449.250 13.100 449.350 13.000 449.250 13.000 H 443.450 C 443.350 13.000 443.450 13.100 443.450 13.000 V 10.100 C 443.450 10.045 443.405 10.000 443.350 10.000 H 437.350 C 437.295 10.000 437.250 10.045 437.250 10.100 V 13.000 C 437.250 13.100 437.350 13.000 437.250 13.000 H 431.450 C 431.350 13.000 431.450 13.100 431.450 13.000 V 10.100 C 431.450 10.045 431.405 10.000 431.350 10.000 H 425.350 C 425.295 10.000 425.250 10.045 425.250 10.100 V 13.000 C 425.250 13.100 425.350 13.000 425.250 13.000 H 419.450 C 419.350 13.000 419.450 13.100 419.450 13.000 V 10.100 C 419.450 10.045 419.405 10.000 419.350 10.000 H 413.350 C 413.295 10.000 413.250 10.045 413.250 10.100 V 13.000 C 413.250 13.100 413.350 13.000 413.250 13.000 H 407.450 C 407.350 13.000 407.450 13.100 407.450 13.000 V 10.100 C 407.450 10.045 407.405 10.000 407.350 10.000 H 401.350 C 401.295 10.000 401.250 10.045 401.250 10.100 V 13.000 C 401.250 13.100 401.350 13.000 401.250 13.000 H 395.450 C 395.350 13.000 395.450 13.100 395.450 13.000 V 10.100 C 395.450 10.045 395.405 10.000 395.350 10.000 H 389.350 C 389.295 10.000 389.250 10.045 389.250 10.100 V 13.000 C 389.250 13.100 389.350 13.000 389.250 13.000 H 383.450 C 383.350 13.000 383.450 13.100 383.450 13.000 V 10.100 C 383.450 10.045 383.405 10.000 383.350 10.000 H 377.350 C 377.295 10.000 377.250 10.045 377.250 10.100 V 13.000 C 377.250 13.100 377.350 13.000 377.250 13.000 H 371.450 C 371.350 13.000 371.450 13.100 371.450 13.000 V 10.100 C 371.450 10.045 371.405 10.000 371.350 10.000 H 365.350 C 365.295 10.000 365.250 10.045 365.250 10.100 V 13.000 C 365.250 13.100 365.350 13.000 365.250 13.000 H 359.450 C 359.350 13.000 359.450 13.100 359.450 13.000 V 10.100 C 359.450 10.045 359.405 10.000 359.350 10.000 H 353.350 C 353.295 10.000 353.250 10.045 353.250 10.100 V 13.000 C 353.250 13.100 353.350 13.000 353.250 13.000 H 347.450 C 347.350 13.000 347.450 13.100 347.450 13.000 V 10.100 C 347.450 10.045 347.405 10.000 347.350 10.000 H 341.350 C 341.295 10.000 341.250 10.045 341.250 10.100 V 13.000 C 341.250 13.100 341.350 13.000 341.250 13.000 H 335.450 C 335.350 13.000 335.450 13.100 335.450 13.000 V 10.100 C 335.450 10.045 335.405 10.000 335.350 10.000 H 329.350 H 326.350 C 326.295 10.000 326.250 10.045 326.250 10.100 V 13.100 V 20.100 C 326.250 20.155 326.295 20.200 326.350 20.200 H 329.250 C 329.350 20.200 329.250 20.100 329.250 20.200 V 26.000 C 329.250 26.100 329.350 26.000 329.250 26.000 H 326.350 C 326.295 26.000 326.250 26.045 326.250 26.100 V 32.100 C 326.250 32.155 326.295 32.200 326.350 32.200 H 329.250 C 329.350 32.200 329.250 32.100 329.250 32.200 V 38.000 C 329.250 38.100 329.350 38.000 329.250 38.000 H 326.350 C 326.295 38.000 326.250 38.045 326.250 38.100 V 44.100 C 326.250 44.155 326.295 44.200 326.350 44.200 H 329.250 C 329.350 44.200 329.250 44.100 329.250 44.200 V 50.000 C 329.250 50.100 329.350 50.000 329.250 50.000 H 326.350 C 326.295 50.000 326.250 50.045 326.250 50.100 V 56.100 C 326.250 56.155 326.295 56.200 326.350 56.200 H 329.250 C 329.350 56.200 329.250 56.100 329.250 56.200 V 62.000 C 329.250 62.100 329.350 62.000 329.250 62.000 H 326.350 C 326.295 62.000 326.250 62.045 326.250 62.100 V 68.100 C 326.250 68.155 326.295 68.200 326.350 68.200 H 329.250 C 329.350 68.200 329.250 68.100 329.250 68.200 V 74.000 C 329.250 74.100 329.350 74.000 329.250 74.000 H 326.350 C 326.295 74.000 326.250 74.045 326.250 74.100 V 80.100 C 326.250 80.155 326.295 80.200 326.350 80.200 H 329.250 C 329.350 80.200 329.250 80.100 329.250 80.200 V 86.000 C 329.250 86.100 329.350 86.000 329.250 86.000 H 326.350 C 326.295 86.000 326.250 86.045 326.250 86.100 V 92.100 C 326.250 92.155 326.295 92.200 326.350 92.200 H 329.250 C 329.350 92.200 329.250 92.100 329.250 92.200 V 98.000 C 329.250 98.100 329.350 98.000 329.250 98.000 H 326.350 C 326.295 98.000 326.250 98.045 326.250 98.100 V 104.100 C 326.250 104.155 326.295 104.200 326.350 104.200 H 329.250 C 329.350 104.200 329.250 104.100 329.250 104.200 V 110.000 C 329.250 110.100 329.350 110.000 329.250 110.000 H 326.350 C 326.295 110.000 326.250 110.045 326.250 110.100 V 116.100 C 326.250 116.155 326.295 116.200 326.350 116.200 H 329.250 C 329.350 116.200 329.250 116.100 329.250 116.200 V 122.000 C 329.250 122.100 329.350 122.000 329.250 122.000 H 326.350 C 326.295 122.000 326.250 122.045 326.250 122.100 V 128.100 C 326.250 128.155 326.295 128.200 326.350 128.200 H 329.250 C 329.350 128.200 329.250 128.100 329.250 128.200 V 134.000 C 329.250 134.100 329.350 134.000 329.250 134.000 H 326.350 C 326.295 134.000 326.250 134.045 326.250 134.100 V 140.100 C 326.250 140.155 326.295 140.200 326.350 140.200 H 329.250 C 329.350 140.200 329.250 140.100 329.250 140.200 V 146.000 C 329.250 146.100 329.350 146.000 329.250 146.000 H 326.350 C 326.295 146.000 326.250 146.045 326.250 146.100 V 152.100 C 326.250 152.155 326.295 152.200 326.350 152.200 H 329.250 C 329.350 152.200 329.250 152.100 329.250 152.200 V 158.000 C 329.250 158.100 329.350 158.000 329.250 158.000 H 326.350 C 326.295 158.000 326.250 158.045 326.250 158.100 V 164.100 C 326.250 164.155 326.295 164.200 326.350 164.200 H 329.250 C 329.350 164.200 329.250 164.100 329.250 164.200 V 170.000 C 329.250 170.100 329.350 170.000 329.250 170.000 H 326.350 C 326.295 170.000 326.250 170.045 326.250 170.100 V 176.100 C 326.250 176.155 326.295 176.200 326.350 176.200 H 329.250 C 329.350 176.200 329.250 176.100 329.250 176.200 V 182.000 C 329.250 182.100 329.350 182.000 329.250 182.000 H 326.350 C 326.295 182.000 326.250 182.045 326.250 182.100 V 188.100 C 326.250 188.155 326.295 188.200 326.350 188.200 H 329.250 C 329.350 188.200 329.250 188.100 329.250 188.200 V 194.000 C 329.250 194.100 329.350 194.000 329.250 194.000 H 326.350 C 326.295 194.000 326.250 194.045 326.250 194.100 V 200.100 C 326.250 200.155 326.295 200.200 326.350 200.200 H 329.250 C 329.350 200.200 329.250 200.100 329.250 200.200 V 206.000 C 329.250 206.100 329.350 206.000 329.250 206.000 H 326.350 C 326.295 206.000 326.250 206.045 326.250 206.100 V 213.100 V 216.100 C 326.250 216.155 326.295 216.200 326.350 216.200 H 329.350 Z" fill-rule="nonzero"></path><path transform="matrix(1,0,0,1,-162.003206,18.906511)" stroke="#000000" fill="none" vector-effect="non-scaling-stroke" data-view-type="laser" d="M 488.750 216.200 H 494.250 C 494.305 216.200 494.350 216.155 494.350 216.100 V 213.200 C 494.350 213.100 494.250 213.200 494.350 213.200 H 500.150 C 500.250 213.200 500.150 213.100 500.150 213.200 V 216.100 C 500.150 216.155 500.195 216.200 500.250 216.200 H 506.250 C 506.305 216.200 506.350 216.155 506.350 216.100 V 213.200 C 506.350 213.100 506.250 213.200 506.350 213.200 H 512.150 C 512.250 213.200 512.150 213.100 512.150 213.200 V 216.100 C 512.150 216.155 512.195 216.200 512.250 216.200 H 518.250 C 518.305 216.200 518.350 216.155 518.350 216.100 V 213.200 C 518.350 213.100 518.250 213.200 518.350 213.200 H 524.150 C 524.250 213.200 524.150 213.100 524.150 213.200 V 216.100 C 524.150 216.155 524.195 216.200 524.250 216.200 H 530.250 C 530.305 216.200 530.350 216.155 530.350 216.100 V 213.200 C 530.350 213.100 530.250 213.200 530.350 213.200 H 536.150 C 536.250 213.200 536.150 213.100 536.150 213.200 V 216.100 C 536.150 216.155 536.195 216.200 536.250 216.200 H 542.250 C 542.305 216.200 542.350 216.155 542.350 216.100 V 213.200 C 542.350 213.100 542.250 213.200 542.350 213.200 H 548.150 C 548.250 213.200 548.150 213.100 548.150 213.200 V 216.100 C 548.150 216.155 548.195 216.200 548.250 216.200 H 553.750 H 553.313 C 553.368 216.200 553.413 216.155 553.413 216.100 V 213.100 V 206.200 C 553.413 206.100 553.313 206.200 553.413 206.200 H 556.267 C 556.323 206.200 556.367 206.155 556.367 206.100 V 200.100 C 556.367 200.045 556.323 200.000 556.267 200.000 H 553.413 C 553.313 200.000 553.413 200.100 553.413 200.000 V 194.200 C 553.413 194.100 553.313 194.200 553.413 194.200 H 556.267 C 556.323 194.200 556.367 194.155 556.367 194.100 V 188.100 C 556.367 188.045 556.323 188.000 556.267 188.000 H 553.413 C 553.313 188.000 553.413 188.100 553.413 188.000 V 182.200 C 553.413 182.100 553.313 182.200 553.413 182.200 H 556.267 C 556.323 182.200 556.367 182.155 556.367 182.100 V 176.100 C 556.367 176.045 556.323 176.000 556.267 176.000 H 553.413 C 553.313 176.000 553.413 176.100 553.413 176.000 V 170.200 C 553.413 170.100 553.313 170.200 553.413 170.200 H 556.267 C 556.323 170.200 556.367 170.155 556.367 170.100 V 164.100 C 556.367 164.045 556.323 164.000 556.267 164.000 H 553.413 C 553.313 164.000 553.413 164.100 553.413 164.000 V 158.200 C 553.413 158.100 553.313 158.200 553.413 158.200 H 556.267 C 556.323 158.200 556.367 158.155 556.367 158.100 V 152.100 C 556.367 152.045 556.323 152.000 556.267 152.000 H 553.413 C 553.313 152.000 553.413 152.100 553.413 152.000 V 146.200 C 553.413 146.100 553.313 146.200 553.413 146.200 H 556.267 C 556.323 146.200 556.367 146.155 556.367 146.100 V 140.100 C 556.367 140.045 556.323 140.000 556.267 140.000 H 553.413 C 553.313 140.000 553.413 140.100 553.413 140.000 V 134.200 C 553.413 134.100 553.313 134.200 553.413 134.200 H 556.267 C 556.323 134.200 556.367 134.155 556.367 134.100 V 128.100 C 556.367 128.045 556.323 128.000 556.267 128.000 H 553.413 C 553.313 128.000 553.413 128.100 553.413 128.000 V 122.200 C 553.413 122.100 553.313 122.200 553.413 122.200 H 556.267 C 556.323 122.200 556.367 122.155 556.367 122.100 V 116.100 C 556.367 116.045 556.323 116.000 556.267 116.000 H 553.413 C 553.313 116.000 553.413 116.100 553.413 116.000 V 110.200 C 553.413 110.100 553.313 110.200 553.413 110.200 H 556.267 C 556.323 110.200 556.367 110.155 556.367 110.100 V 104.100 C 556.367 104.045 556.323 104.000 556.267 104.000 H 553.413 C 553.313 104.000 553.413 104.100 553.413 104.000 V 98.200 C 553.413 98.100 553.313 98.200 553.413 98.200 H 556.267 C 556.323 98.200 556.367 98.155 556.367 98.100 V 92.100 C 556.367 92.045 556.323 92.000 556.267 92.000 H 553.413 C 553.313 92.000 553.413 92.100 553.413 92.000 V 86.200 C 553.413 86.100 553.313 86.200 553.413 86.200 H 556.267 C 556.323 86.200 556.367 86.155 556.367 86.100 V 80.100 C 556.367 80.045 556.323 80.000 556.267 80.000 H 553.413 C 553.313 80.000 553.413 80.100 553.413 80.000 V 74.200 C 553.413 74.100 553.313 74.200 553.413 74.200 H 556.267 C 556.323 74.200 556.367 74.155 556.367 74.100 V 68.100 C 556.367 68.045 556.323 68.000 556.267 68.000 H 553.413 C 553.313 68.000 553.413 68.100 553.413 68.000 V 62.200 C 553.413 62.100 553.313 62.200 553.413 62.200 H 556.267 C 556.323 62.200 556.367 62.155 556.367 62.100 V 56.100 C 556.367 56.045 556.323 56.000 556.267 56.000 H 553.413 C 553.313 56.000 553.413 56.100 553.413 56.000 V 50.200 C 553.413 50.100 553.313 50.200 553.413 50.200 H 556.267 C 556.323 50.200 556.367 50.155 556.367 50.100 V 44.100 C 556.367 44.045 556.323 44.000 556.267 44.000 H 553.413 C 553.313 44.000 553.413 44.100 553.413 44.000 V 38.200 C 553.413 38.100 553.313 38.200 553.413 38.200 H 556.267 C 556.323 38.200 556.367 38.155 556.367 38.100 V 32.100 C 556.367 32.045 556.323 32.000 556.267 32.000 H 553.413 C 553.313 32.000 553.413 32.100 553.413 32.000 V 26.200 C 553.413 26.100 553.313 26.200 553.413 26.200 H 556.267 C 556.323 26.200 556.367 26.155 556.367 26.100 V 20.100 C 556.367 20.045 556.323 20.000 556.267 20.000 H 553.413 C 553.313 20.000 553.413 20.100 553.413 20.000 V 13.100 V 10.100 C 553.413 10.045 553.368 10.000 553.313 10.000 H 553.750 H 548.250 C 548.195 10.000 548.150 10.045 548.150 10.100 V 13.000 C 548.150 13.100 548.250 13.000 548.150 13.000 H 542.350 C 542.250 13.000 542.350 13.100 542.350 13.000 V 10.100 C 542.350 10.045 542.305 10.000 542.250 10.000 H 536.250 C 536.195 10.000 536.150 10.045 536.150 10.100 V 13.000 C 536.150 13.100 536.250 13.000 536.150 13.000 H 530.350 C 530.250 13.000 530.350 13.100 530.350 13.000 V 10.100 C 530.350 10.045 530.305 10.000 530.250 10.000 H 524.250 C 524.195 10.000 524.150 10.045 524.150 10.100 V 13.000 C 524.150 13.100 524.250 13.000 524.150 13.000 H 518.350 C 518.250 13.000 518.350 13.100 518.350 13.000 V 10.100 C 518.350 10.045 518.305 10.000 518.250 10.000 H 512.250 C 512.195 10.000 512.150 10.045 512.150 10.100 V 13.000 C 512.150 13.100 512.250 13.000 512.150 13.000 H 506.350 C 506.250 13.000 506.350 13.100 506.350 13.000 V 10.100 C 506.350 10.045 506.305 10.000 506.250 10.000 H 500.250 C 500.195 10.000 500.150 10.045 500.150 10.100 V 13.000 C 500.150 13.100 500.250 13.000 500.150 13.000 H 494.350 C 494.250 13.000 494.350 13.100 494.350 13.000 V 10.100 C 494.350 10.045 494.305 10.000 494.250 10.000 H 488.750 C 488.695 10.000 488.650 10.045 488.650 10.100 V 13.100 V 20.000 C 488.650 20.100 488.750 20.000 488.650 20.000 H 485.750 C 485.695 20.000 485.650 20.045 485.650 20.100 V 26.100 C 485.650 26.155 485.695 26.200 485.750 26.200 H 488.650 C 488.750 26.200 488.650 26.100 488.650 26.200 V 32.000 C 488.650 32.100 488.750 32.000 488.650 32.000 H 485.750 C 485.695 32.000 485.650 32.045 485.650 32.100 V 38.100 C 485.650 38.155 485.695 38.200 485.750 38.200 H 488.650 C 488.750 38.200 488.650 38.100 488.650 38.200 V 44.000 C 488.650 44.100 488.750 44.000 488.650 44.000 H 485.750 C 485.695 44.000 485.650 44.045 485.650 44.100 V 50.100 C 485.650 50.155 485.695 50.200 485.750 50.200 H 488.650 C 488.750 50.200 488.650 50.100 488.650 50.200 V 56.000 C 488.650 56.100 488.750 56.000 488.650 56.000 H 485.750 C 485.695 56.000 485.650 56.045 485.650 56.100 V 62.100 C 485.650 62.155 485.695 62.200 485.750 62.200 H 488.650 C 488.750 62.200 488.650 62.100 488.650 62.200 V 68.000 C 488.650 68.100 488.750 68.000 488.650 68.000 H 485.750 C 485.695 68.000 485.650 68.045 485.650 68.100 V 74.100 C 485.650 74.155 485.695 74.200 485.750 74.200 H 488.650 C 488.750 74.200 488.650 74.100 488.650 74.200 V 80.000 C 488.650 80.100 488.750 80.000 488.650 80.000 H 485.750 C 485.695 80.000 485.650 80.045 485.650 80.100 V 86.100 C 485.650 86.155 485.695 86.200 485.750 86.200 H 488.650 C 488.750 86.200 488.650 86.100 488.650 86.200 V 92.000 C 488.650 92.100 488.750 92.000 488.650 92.000 H 485.750 C 485.695 92.000 485.650 92.045 485.650 92.100 V 98.100 C 485.650 98.155 485.695 98.200 485.750 98.200 H 488.650 C 488.750 98.200 488.650 98.100 488.650 98.200 V 104.000 C 488.650 104.100 488.750 104.000 488.650 104.000 H 485.750 C 485.695 104.000 485.650 104.045 485.650 104.100 V 110.100 C 485.650 110.155 485.695 110.200 485.750 110.200 H 488.650 C 488.750 110.200 488.650 110.100 488.650 110.200 V 116.000 C 488.650 116.100 488.750 116.000 488.650 116.000 H 485.750 C 485.695 116.000 485.650 116.045 485.650 116.100 V 122.100 C 485.650 122.155 485.695 122.200 485.750 122.200 H 488.650 C 488.750 122.200 488.650 122.100 488.650 122.200 V 128.000 C 488.650 128.100 488.750 128.000 488.650 128.000 H 485.750 C 485.695 128.000 485.650 128.045 485.650 128.100 V 134.100 C 485.650 134.155 485.695 134.200 485.750 134.200 H 488.650 C 488.750 134.200 488.650 134.100 488.650 134.200 V 140.000 C 488.650 140.100 488.750 140.000 488.650 140.000 H 485.750 C 485.695 140.000 485.650 140.045 485.650 140.100 V 146.100 C 485.650 146.155 485.695 146.200 485.750 146.200 H 488.650 C 488.750 146.200 488.650 146.100 488.650 146.200 V 152.000 C 488.650 152.100 488.750 152.000 488.650 152.000 H 485.750 C 485.695 152.000 485.650 152.045 485.650 152.100 V 158.100 C 485.650 158.155 485.695 158.200 485.750 158.200 H 488.650 C 488.750 158.200 488.650 158.100 488.650 158.200 V 164.000 C 488.650 164.100 488.750 164.000 488.650 164.000 H 485.750 C 485.695 164.000 485.650 164.045 485.650 164.100 V 170.100 C 485.650 170.155 485.695 170.200 485.750 170.200 H 488.650 C 488.750 170.200 488.650 170.100 488.650 170.200 V 176.000 C 488.650 176.100 488.750 176.000 488.650 176.000 H 485.750 C 485.695 176.000 485.650 176.045 485.650 176.100 V 182.100 C 485.650 182.155 485.695 182.200 485.750 182.200 H 488.650 C 488.750 182.200 488.650 182.100 488.650 182.200 V 188.000 C 488.650 188.100 488.750 188.000 488.650 188.000 H 485.750 C 485.695 188.000 485.650 188.045 485.650 188.100 V 194.100 C 485.650 194.155 485.695 194.200 485.750 194.200 H 488.650 C 488.750 194.200 488.650 194.100 488.650 194.200 V 200.000 C 488.650 200.100 488.750 200.000 488.650 200.000 H 485.750 C 485.695 200.000 485.650 200.045 485.650 200.100 V 206.100 C 485.650 206.155 485.695 206.200 485.750 206.200 H 488.650 C 488.750 206.200 488.650 206.100 488.650 206.200 V 213.100 V 216.100 C 488.650 216.155 488.695 216.200 488.750 216.200 Z" fill-rule="nonzero"></path><path transform="matrix(1,0,0,1,-323.839125,18.906511)" stroke="#000000" fill="none" vector-effect="non-scaling-stroke" data-view-type="laser" d="M 723.899 216.200 H 730.623 C 730.678 216.200 730.723 216.155 730.723 216.100 V 213.200 C 730.723 213.100 730.623 213.200 730.723 213.200 H 736.523 C 736.623 213.200 736.523 213.100 736.523 213.200 V 216.100 C 736.523 216.155 736.568 216.200 736.623 216.200 H 742.623 C 742.678 216.200 742.723 216.155 742.723 216.100 V 213.200 C 742.723 213.100 742.623 213.200 742.723 213.200 H 748.523 C 748.623 213.200 748.523 213.100 748.523 213.200 V 216.100 C 748.523 216.155 748.568 216.200 748.623 216.200 H 754.623 C 754.678 216.200 754.723 216.155 754.723 216.100 V 213.200 C 754.723 213.100 754.623 213.200 754.723 213.200 H 760.523 C 760.623 213.200 760.523 213.100 760.523 213.200 V 216.100 C 760.523 216.155 760.568 216.200 760.623 216.200 H 766.623 C 766.678 216.200 766.723 216.155 766.723 216.100 V 213.200 C 766.723 213.100 766.623 213.200 766.723 213.200 H 772.523 C 772.623 213.200 772.523 213.100 772.523 213.200 V 216.100 C 772.523 216.155 772.568 216.200 772.623 216.200 H 778.623 C 778.678 216.200 778.723 216.155 778.723 216.100 V 213.200 C 778.723 213.100 778.623 213.200 778.723 213.200 H 784.523 C 784.623 213.200 784.523 213.100 784.523 213.200 V 216.100 C 784.523 216.155 784.568 216.200 784.623 216.200 H 790.623 C 790.678 216.200 790.723 216.155 790.723 216.100 V 213.200 C 790.723 213.100 790.623 213.200 790.723 213.200 H 796.523 C 796.623 213.200 796.523 213.100 796.523 213.200 V 216.100 C 796.523 216.155 796.568 216.200 796.623 216.200 H 802.623 C 802.678 216.200 802.723 216.155 802.723 216.100 V 213.200 C 802.723 213.100 802.623 213.200 802.723 213.200 H 808.523 C 808.623 213.200 808.523 213.100 808.523 213.200 V 216.100 C 808.523 216.155 808.568 216.200 808.623 216.200 H 815.348 C 815.403 216.200 815.448 216.155 815.448 216.100 V 213.100 V 206.200 C 815.448 206.100 815.348 206.200 815.448 206.200 H 818.348 C 818.403 206.200 818.448 206.155 818.448 206.100 V 200.100 C 818.448 200.045 818.403 200.000 818.348 200.000 H 815.448 C 815.348 200.000 815.448 200.100 815.448 200.000 V 194.200 C 815.448 194.100 815.348 194.200 815.448 194.200 H 818.348 C 818.403 194.200 818.448 194.155 818.448 194.100 V 188.100 C 818.448 188.045 818.403 188.000 818.348 188.000 H 815.448 C 815.348 188.000 815.448 188.100 815.448 188.000 V 182.200 C 815.448 182.100 815.348 182.200 815.448 182.200 H 818.348 C 818.403 182.200 818.448 182.155 818.448 182.100 V 176.100 C 818.448 176.045 818.403 176.000 818.348 176.000 H 815.448 C 815.348 176.000 815.448 176.100 815.448 176.000 V 170.200 C 815.448 170.100 815.348 170.200 815.448 170.200 H 818.348 C 818.403 170.200 818.448 170.155 818.448 170.100 V 164.100 C 818.448 164.045 818.403 164.000 818.348 164.000 H 815.448 C 815.348 164.000 815.448 164.100 815.448 164.000 V 158.200 C 815.448 158.100 815.348 158.200 815.448 158.200 H 818.348 C 818.403 158.200 818.448 158.155 818.448 158.100 V 152.100 C 818.448 152.045 818.403 152.000 818.348 152.000 H 815.448 C 815.348 152.000 815.448 152.100 815.448 152.000 V 146.200 C 815.448 146.100 815.348 146.200 815.448 146.200 H 818.348 C 818.403 146.200 818.448 146.155 818.448 146.100 V 140.100 C 818.448 140.045 818.403 140.000 818.348 140.000 H 815.448 C 815.348 140.000 815.448 140.100 815.448 140.000 V 134.200 C 815.448 134.100 815.348 134.200 815.448 134.200 H 818.348 C 818.403 134.200 818.448 134.155 818.448 134.100 V 128.100 C 818.448 128.045 818.403 128.000 818.348 128.000 H 815.448 C 815.348 128.000 815.448 128.100 815.448 128.000 V 122.200 C 815.448 122.100 815.348 122.200 815.448 122.200 H 818.348 C 818.403 122.200 818.448 122.155 818.448 122.100 V 116.100 C 818.448 116.045 818.403 116.000 818.348 116.000 H 815.448 C 815.348 116.000 815.448 116.100 815.448 116.000 V 110.200 C 815.448 110.100 815.348 110.200 815.448 110.200 H 818.348 C 818.403 110.200 818.448 110.155 818.448 110.100 V 104.100 C 818.448 104.045 818.403 104.000 818.348 104.000 H 815.448 C 815.348 104.000 815.448 104.100 815.448 104.000 V 98.200 C 815.448 98.100 815.348 98.200 815.448 98.200 H 818.348 C 818.403 98.200 818.448 98.155 818.448 98.100 V 92.100 C 818.448 92.045 818.403 92.000 818.348 92.000 H 815.448 C 815.348 92.000 815.448 92.100 815.448 92.000 V 86.200 C 815.448 86.100 815.348 86.200 815.448 86.200 H 818.348 C 818.403 86.200 818.448 86.155 818.448 86.100 V 80.100 C 818.448 80.045 818.403 80.000 818.348 80.000 H 815.448 C 815.348 80.000 815.448 80.100 815.448 80.000 V 74.200 C 815.448 74.100 815.348 74.200 815.448 74.200 H 818.348 C 818.403 74.200 818.448 74.155 818.448 74.100 V 68.100 C 818.448 68.045 818.403 68.000 818.348 68.000 H 815.448 C 815.348 68.000 815.448 68.100 815.448 68.000 V 62.200 C 815.448 62.100 815.348 62.200 815.448 62.200 H 818.348 C 818.403 62.200 818.448 62.155 818.448 62.100 V 56.100 C 818.448 56.045 818.403 56.000 818.348 56.000 H 815.448 C 815.348 56.000 815.448 56.100 815.448 56.000 V 50.200 C 815.448 50.100 815.348 50.200 815.448 50.200 H 818.348 C 818.403 50.200 818.448 50.155 818.448 50.100 V 44.100 C 818.448 44.045 818.403 44.000 818.348 44.000 H 815.448 C 815.348 44.000 815.448 44.100 815.448 44.000 V 38.200 C 815.448 38.100 815.348 38.200 815.448 38.200 H 818.348 C 818.403 38.200 818.448 38.155 818.448 38.100 V 32.100 C 818.448 32.045 818.403 32.000 818.348 32.000 H 815.448 C 815.348 32.000 815.448 32.100 815.448 32.000 V 26.200 C 815.448 26.100 815.348 26.200 815.448 26.200 H 818.348 C 818.403 26.200 818.448 26.155 818.448 26.100 V 20.100 C 818.448 20.045 818.403 20.000 818.348 20.000 H 815.448 C 815.348 20.000 815.448 20.100 815.448 20.000 V 13.100 V 10.100 C 815.448 10.045 815.403 10.000 815.348 10.000 H 808.623 C 808.568 10.000 808.523 10.045 808.523 10.100 V 13.000 C 808.523 13.100 808.623 13.000 808.523 13.000 H 802.723 C 802.623 13.000 802.723 13.100 802.723 13.000 V 10.100 C 802.723 10.045 802.678 10.000 802.623 10.000 H 796.623 C 796.568 10.000 796.523 10.045 796.523 10.100 V 13.000 C 796.523 13.100 796.623 13.000 796.523 13.000 H 790.723 C 790.623 13.000 790.723 13.100 790.723 13.000 V 10.100 C 790.723 10.045 790.678 10.000 790.623 10.000 H 784.623 C 784.568 10.000 784.523 10.045 784.523 10.100 V 13.000 C 784.523 13.100 784.623 13.000 784.523 13.000 H 778.723 C 778.623 13.000 778.723 13.100 778.723 13.000 V 10.100 C 778.723 10.045 778.678 10.000 778.623 10.000 H 772.623 C 772.568 10.000 772.523 10.045 772.523 10.100 V 13.000 C 772.523 13.100 772.623 13.000 772.523 13.000 H 766.723 C 766.623 13.000 766.723 13.100 766.723 13.000 V 10.100 C 766.723 10.045 766.678 10.000 766.623 10.000 H 760.623 C 760.568 10.000 760.523 10.045 760.523 10.100 V 13.000 C 760.523 13.100 760.623 13.000 760.523 13.000 H 754.723 C 754.623 13.000 754.723 13.100 754.723 13.000 V 10.100 C 754.723 10.045 754.678 10.000 754.623 10.000 H 748.623 C 748.568 10.000 748.523 10.045 748.523 10.100 V 13.000 C 748.523 13.100 748.623 13.000 748.523 13.000 H 742.723 C 742.623 13.000 742.723 13.100 742.723 13.000 V 10.100 C 742.723 10.045 742.678 10.000 742.623 10.000 H 736.623 C 736.568 10.000 736.523 10.045 736.523 10.100 V 13.000 C 736.523 13.100 736.623 13.000 736.523 13.000 H 730.723 C 730.623 13.000 730.723 13.100 730.723 13.000 V 10.100 C 730.723 10.045 730.678 10.000 730.623 10.000 H 723.899 C 723.843 10.000 723.799 10.045 723.799 10.100 V 13.100 V 20.000 C 723.799 20.100 723.899 20.000 723.799 20.000 H 720.899 C 720.843 20.000 720.799 20.045 720.799 20.100 V 26.100 C 720.799 26.155 720.843 26.200 720.899 26.200 H 723.799 C 723.899 26.200 723.799 26.100 723.799 26.200 V 32.000 C 723.799 32.100 723.899 32.000 723.799 32.000 H 720.899 C 720.843 32.000 720.799 32.045 720.799 32.100 V 38.100 C 720.799 38.155 720.843 38.200 720.899 38.200 H 723.799 C 723.899 38.200 723.799 38.100 723.799 38.200 V 44.000 C 723.799 44.100 723.899 44.000 723.799 44.000 H 720.899 C 720.843 44.000 720.799 44.045 720.799 44.100 V 50.100 C 720.799 50.155 720.843 50.200 720.899 50.200 H 723.799 C 723.899 50.200 723.799 50.100 723.799 50.200 V 56.000 C 723.799 56.100 723.899 56.000 723.799 56.000 H 720.899 C 720.843 56.000 720.799 56.045 720.799 56.100 V 62.100 C 720.799 62.155 720.843 62.200 720.899 62.200 H 723.799 C 723.899 62.200 723.799 62.100 723.799 62.200 V 68.000 C 723.799 68.100 723.899 68.000 723.799 68.000 H 720.899 C 720.843 68.000 720.799 68.045 720.799 68.100 V 74.100 C 720.799 74.155 720.843 74.200 720.899 74.200 H 723.799 C 723.899 74.200 723.799 74.100 723.799 74.200 V 80.000 C 723.799 80.100 723.899 80.000 723.799 80.000 H 720.899 C 720.843 80.000 720.799 80.045 720.799 80.100 V 86.100 C 720.799 86.155 720.843 86.200 720.899 86.200 H 723.799 C 723.899 86.200 723.799 86.100 723.799 86.200 V 92.000 C 723.799 92.100 723.899 92.000 723.799 92.000 H 720.899 C 720.843 92.000 720.799 92.045 720.799 92.100 V 98.100 C 720.799 98.155 720.843 98.200 720.899 98.200 H 723.799 C 723.899 98.200 723.799 98.100 723.799 98.200 V 104.000 C 723.799 104.100 723.899 104.000 723.799 104.000 H 720.899 C 720.843 104.000 720.799 104.045 720.799 104.100 V 110.100 C 720.799 110.155 720.843 110.200 720.899 110.200 H 723.799 C 723.899 110.200 723.799 110.100 723.799 110.200 V 116.000 C 723.799 116.100 723.899 116.000 723.799 116.000 H 720.899 C 720.843 116.000 720.799 116.045 720.799 116.100 V 122.100 C 720.799 122.155 720.843 122.200 720.899 122.200 H 723.799 C 723.899 122.200 723.799 122.100 723.799 122.200 V 128.000 C 723.799 128.100 723.899 128.000 723.799 128.000 H 720.899 C 720.843 128.000 720.799 128.045 720.799 128.100 V 134.100 C 720.799 134.155 720.843 134.200 720.899 134.200 H 723.799 C 723.899 134.200 723.799 134.100 723.799 134.200 V 140.000 C 723.799 140.100 723.899 140.000 723.799 140.000 H 720.899 C 720.843 140.000 720.799 140.045 720.799 140.100 V 146.100 C 720.799 146.155 720.843 146.200 720.899 146.200 H 723.799 C 723.899 146.200 723.799 146.100 723.799 146.200 V 152.000 C 723.799 152.100 723.899 152.000 723.799 152.000 H 720.899 C 720.843 152.000 720.799 152.045 720.799 152.100 V 158.100 C 720.799 158.155 720.843 158.200 720.899 158.200 H 723.799 C 723.899 158.200 723.799 158.100 723.799 158.200 V 164.000 C 723.799 164.100 723.899 164.000 723.799 164.000 H 720.899 C 720.843 164.000 720.799 164.045 720.799 164.100 V 170.100 C 720.799 170.155 720.843 170.200 720.899 170.200 H 723.799 C 723.899 170.200 723.799 170.100 723.799 170.200 V 176.000 C 723.799 176.100 723.899 176.000 723.799 176.000 H 720.899 C 720.843 176.000 720.799 176.045 720.799 176.100 V 182.100 C 720.799 182.155 720.843 182.200 720.899 182.200 H 723.799 C 723.899 182.200 723.799 182.100 723.799 182.200 V 188.000 C 723.799 188.100 723.899 188.000 723.799 188.000 H 720.899 C 720.843 188.000 720.799 188.045 720.799 188.100 V 194.100 C 720.799 194.155 720.843 194.200 720.899 194.200 H 723.799 C 723.899 194.200 723.799 194.100 723.799 194.200 V 200.000 C 723.799 200.100 723.899 200.000 723.799 200.000 H 720.899 C 720.843 200.000 720.799 200.045 720.799 200.100 V 206.100 C 720.799 206.155 720.843 206.200 720.899 206.200 H 723.799 C 723.899 206.200 723.799 206.100 723.799 206.200 V 213.100 V 216.100 C 723.799 216.155 723.843 216.200 723.899 216.200 Z" fill-rule="nonzero"></path><ellipse transform="matrix(0.00599315,0,0,0.00599315,418.753502,126.006509) scale(100)" stroke="#000000" fill="none" vector-effect="non-scaling-stroke" data-view-type="laser" cx="10.011433086535192" cy="10.011433220068737" rx="10.011433086535192" ry="10.011433220068737"></ellipse><ellipse transform="matrix(0.00499429,0,0,0.00499429,354.005293,127.006509) scale(100)" stroke="#000000" fill="none" vector-effect="non-scaling-stroke" data-view-type="laser" cx="10.011433086535192" cy="10.011433220068737" rx="10.011433086535192" ry="10.011433220068737"></ellipse></svg>