<?xml version="1.0"?>
<!-- Created with xTool Creative Space (https://www.xtool.com/pages/software) -->
<svg xmlns="http://www.w3.org/2000/svg" xmlns:xlink="http://www.w3.org/1999/xlink" xmlns:xcs="https://www.xtool.com/pages/software" version="1.1" preserveAspectRatio="xMinYMin meet" width="206.19999694823665mm" height="158.03100585937082mm" viewBox="8.46681102669286 27.689208651602055 206.19999694823665 158.03100585937082"><style></style>
<path transform="matrix(-3.82857e-16,1,-1,-3.82857e-16,224.666808,-497.360779)" stroke="#fe0002" fill="none" vector-effect="non-scaling-stroke" data-view-type="laser" d="M 527.667 216.200 H 534.824 C 534.880 216.200 534.924 216.155 534.924 216.100 V 213.200 C 534.924 213.100 534.824 213.200 534.924 213.200 H 540.724 C 540.824 213.200 540.724 213.100 540.724 213.200 V 216.100 C 540.724 216.155 540.769 216.200 540.824 216.200 H 546.824 C 546.880 216.200 546.924 216.155 546.924 216.100 V 213.200 C 546.924 213.100 546.824 213.200 546.924 213.200 H 552.724 C 552.824 213.200 552.724 213.100 552.724 213.200 V 216.100 C 552.724 216.155 552.769 216.200 552.824 216.200 H 558.824 C 558.880 216.200 558.924 216.155 558.924 216.100 V 213.200 C 558.924 213.100 558.824 213.200 558.924 213.200 H 564.724 C 564.824 213.200 564.724 213.100 564.724 213.200 V 216.100 C 564.724 216.155 564.769 216.200 564.824 216.200 H 570.824 C 570.880 216.200 570.924 216.155 570.924 216.100 V 213.200 C 570.924 213.100 570.824 213.200 570.924 213.200 H 576.724 C 576.824 213.200 576.724 213.100 576.724 213.200 V 216.100 C 576.724 216.155 576.769 216.200 576.824 216.200 H 582.824 C 582.880 216.200 582.924 216.155 582.924 216.100 V 213.200 C 582.924 213.100 582.824 213.200 582.924 213.200 H 588.724 C 588.824 213.200 588.724 213.100 588.724 213.200 V 216.100 C 588.724 216.155 588.769 216.200 588.824 216.200 H 594.824 C 594.880 216.200 594.924 216.155 594.924 216.100 V 213.200 C 594.924 213.100 594.824 213.200 594.924 213.200 H 600.724 C 600.824 213.200 600.724 213.100 600.724 213.200 V 216.100 C 600.724 216.155 600.769 216.200 600.824 216.200 H 606.824 C 606.880 216.200 606.924 216.155 606.924 216.100 V 213.200 C 606.924 213.100 606.824 213.200 606.924 213.200 H 612.724 C 612.824 213.200 612.724 213.100 612.724 213.200 V 216.100 C 612.724 216.155 612.769 216.200 612.824 216.200 H 618.824 C 618.880 216.200 618.924 216.155 618.924 216.100 V 213.200 C 618.924 213.100 618.824 213.200 618.924 213.200 H 624.724 C 624.824 213.200 624.724 213.100 624.724 213.200 V 216.100 C 624.724 216.155 624.769 216.200 624.824 216.200 H 630.824 C 630.880 216.200 630.924 216.155 630.924 216.100 V 213.200 C 630.924 213.100 630.824 213.200 630.924 213.200 H 636.724 C 636.824 213.200 636.724 213.100 636.724 213.200 V 216.100 C 636.724 216.155 636.769 216.200 636.824 216.200 H 642.824 C 642.880 216.200 642.924 216.155 642.924 216.100 V 213.200 C 642.924 213.100 642.824 213.200 642.924 213.200 H 648.724 C 648.824 213.200 648.724 213.100 648.724 213.200 V 216.100 C 648.724 216.155 648.769 216.200 648.824 216.200 H 654.824 C 654.880 216.200 654.924 216.155 654.924 216.100 V 213.200 C 654.924 213.100 654.824 213.200 654.924 213.200 H 660.724 C 660.824 213.200 660.724 213.100 660.724 213.200 V 216.100 C 660.724 216.155 660.769 216.200 660.824 216.200 H 666.824 C 666.880 216.200 666.924 216.155 666.924 216.100 V 213.200 C 666.924 213.100 666.824 213.200 666.924 213.200 H 672.724 C 672.824 213.200 672.724 213.100 672.724 213.200 V 216.100 C 672.724 216.155 672.769 216.200 672.824 216.200 H 679.981 H 682.981 C 683.037 216.200 683.081 216.155 683.081 216.100 V 213.100 V 206.100 C 683.081 206.045 683.037 206.000 682.981 206.000 H 680.081 C 679.981 206.000 680.081 206.100 680.081 206.000 V 200.200 C 680.081 200.100 679.981 200.200 680.081 200.200 H 682.981 C 683.037 200.200 683.081 200.155 683.081 200.100 V 194.100 C 683.081 194.045 683.037 194.000 682.981 194.000 H 680.081 C 679.981 194.000 680.081 194.100 680.081 194.000 V 188.200 C 680.081 188.100 679.981 188.200 680.081 188.200 H 682.981 C 683.037 188.200 683.081 188.155 683.081 188.100 V 182.100 C 683.081 182.045 683.037 182.000 682.981 182.000 H 680.081 C 679.981 182.000 680.081 182.100 680.081 182.000 V 176.200 C 680.081 176.100 679.981 176.200 680.081 176.200 H 682.981 C 683.037 176.200 683.081 176.155 683.081 176.100 V 170.100 C 683.081 170.045 683.037 170.000 682.981 170.000 H 680.081 C 679.981 170.000 680.081 170.100 680.081 170.000 V 164.200 C 680.081 164.100 679.981 164.200 680.081 164.200 H 682.981 C 683.037 164.200 683.081 164.155 683.081 164.100 V 158.100 C 683.081 158.045 683.037 158.000 682.981 158.000 H 680.081 C 679.981 158.000 680.081 158.100 680.081 158.000 V 152.200 C 680.081 152.100 679.981 152.200 680.081 152.200 H 682.981 C 683.037 152.200 683.081 152.155 683.081 152.100 V 146.100 C 683.081 146.045 683.037 146.000 682.981 146.000 H 680.081 C 679.981 146.000 680.081 146.100 680.081 146.000 V 140.200 C 680.081 140.100 679.981 140.200 680.081 140.200 H 682.981 C 683.037 140.200 683.081 140.155 683.081 140.100 V 134.100 C 683.081 134.045 683.037 134.000 682.981 134.000 H 680.081 C 679.981 134.000 680.081 134.100 680.081 134.000 V 128.200 C 680.081 128.100 679.981 128.200 680.081 128.200 H 682.981 C 683.037 128.200 683.081 128.155 683.081 128.100 V 122.100 C 683.081 122.045 683.037 122.000 682.981 122.000 H 680.081 C 679.981 122.000 680.081 122.100 680.081 122.000 V 116.200 C 680.081 116.100 679.981 116.200 680.081 116.200 H 682.981 C 683.037 116.200 683.081 116.155 683.081 116.100 V 110.100 C 683.081 110.045 683.037 110.000 682.981 110.000 H 680.081 C 679.981 110.000 680.081 110.100 680.081 110.000 V 104.200 C 680.081 104.100 679.981 104.200 680.081 104.200 H 682.981 C 683.037 104.200 683.081 104.155 683.081 104.100 V 98.100 C 683.081 98.045 683.037 98.000 682.981 98.000 H 680.081 C 679.981 98.000 680.081 98.100 680.081 98.000 V 92.200 C 680.081 92.100 679.981 92.200 680.081 92.200 H 682.981 C 683.037 92.200 683.081 92.155 683.081 92.100 V 86.100 C 683.081 86.045 683.037 86.000 682.981 86.000 H 680.081 C 679.981 86.000 680.081 86.100 680.081 86.000 V 80.200 C 680.081 80.100 679.981 80.200 680.081 80.200 H 682.981 C 683.037 80.200 683.081 80.155 683.081 80.100 V 74.100 C 683.081 74.045 683.037 74.000 682.981 74.000 H 680.081 C 679.981 74.000 680.081 74.100 680.081 74.000 V 68.200 C 680.081 68.100 679.981 68.200 680.081 68.200 H 682.981 C 683.037 68.200 683.081 68.155 683.081 68.100 V 62.100 C 683.081 62.045 683.037 62.000 682.981 62.000 H 680.081 C 679.981 62.000 680.081 62.100 680.081 62.000 V 56.200 C 680.081 56.100 679.981 56.200 680.081 56.200 H 682.981 C 683.037 56.200 683.081 56.155 683.081 56.100 V 50.100 C 683.081 50.045 683.037 50.000 682.981 50.000 H 680.081 C 679.981 50.000 680.081 50.100 680.081 50.000 V 44.200 C 680.081 44.100 679.981 44.200 680.081 44.200 H 682.981 C 683.037 44.200 683.081 44.155 683.081 44.100 V 38.100 C 683.081 38.045 683.037 38.000 682.981 38.000 H 680.081 C 679.981 38.000 680.081 38.100 680.081 38.000 V 32.200 C 680.081 32.100 679.981 32.200 680.081 32.200 H 682.981 C 683.037 32.200 683.081 32.155 683.081 32.100 V 26.100 C 683.081 26.045 683.037 26.000 682.981 26.000 H 680.081 C 679.981 26.000 680.081 26.100 680.081 26.000 V 20.200 C 680.081 20.100 679.981 20.200 680.081 20.200 H 682.981 C 683.037 20.200 683.081 20.155 683.081 20.100 V 13.100 V 10.100 C 683.081 10.045 683.037 10.000 682.981 10.000 H 679.981 H 672.824 C 672.769 10.000 672.724 10.045 672.724 10.100 V 13.000 C 672.724 13.100 672.824 13.000 672.724 13.000 H 666.924 C 666.824 13.000 666.924 13.100 666.924 13.000 V 10.100 C 666.924 10.045 666.880 10.000 666.824 10.000 H 660.824 C 660.769 10.000 660.724 10.045 660.724 10.100 V 13.000 C 660.724 13.100 660.824 13.000 660.724 13.000 H 654.924 C 654.824 13.000 654.924 13.100 654.924 13.000 V 10.100 C 654.924 10.045 654.880 10.000 654.824 10.000 H 648.824 C 648.769 10.000 648.724 10.045 648.724 10.100 V 13.000 C 648.724 13.100 648.824 13.000 648.724 13.000 H 642.924 C 642.824 13.000 642.924 13.100 642.924 13.000 V 10.100 C 642.924 10.045 642.880 10.000 642.824 10.000 H 636.824 C 636.769 10.000 636.724 10.045 636.724 10.100 V 13.000 C 636.724 13.100 636.824 13.000 636.724 13.000 H 630.924 C 630.824 13.000 630.924 13.100 630.924 13.000 V 10.100 C 630.924 10.045 630.880 10.000 630.824 10.000 H 624.824 C 624.769 10.000 624.724 10.045 624.724 10.100 V 13.000 C 624.724 13.100 624.824 13.000 624.724 13.000 H 618.924 C 618.824 13.000 618.924 13.100 618.924 13.000 V 10.100 C 618.924 10.045 618.880 10.000 618.824 10.000 H 612.824 C 612.769 10.000 612.724 10.045 612.724 10.100 V 13.000 C 612.724 13.100 612.824 13.000 612.724 13.000 H 606.924 C 606.824 13.000 606.924 13.100 606.924 13.000 V 10.100 C 606.924 10.045 606.880 10.000 606.824 10.000 H 600.824 C 600.769 10.000 600.724 10.045 600.724 10.100 V 13.000 C 600.724 13.100 600.824 13.000 600.724 13.000 H 594.924 C 594.824 13.000 594.924 13.100 594.924 13.000 V 10.100 C 594.924 10.045 594.880 10.000 594.824 10.000 H 588.824 C 588.769 10.000 588.724 10.045 588.724 10.100 V 13.000 C 588.724 13.100 588.824 13.000 588.724 13.000 H 582.924 C 582.824 13.000 582.924 13.100 582.924 13.000 V 10.100 C 582.924 10.045 582.880 10.000 582.824 10.000 H 576.824 C 576.769 10.000 576.724 10.045 576.724 10.100 V 13.000 C 576.724 13.100 576.824 13.000 576.724 13.000 H 570.924 C 570.824 13.000 570.924 13.100 570.924 13.000 V 10.100 C 570.924 10.045 570.880 10.000 570.824 10.000 H 564.824 C 564.769 10.000 564.724 10.045 564.724 10.100 V 13.000 C 564.724 13.100 564.824 13.000 564.724 13.000 H 558.924 C 558.824 13.000 558.924 13.100 558.924 13.000 V 10.100 C 558.924 10.045 558.880 10.000 558.824 10.000 H 552.824 C 552.769 10.000 552.724 10.045 552.724 10.100 V 13.000 C 552.724 13.100 552.824 13.000 552.724 13.000 H 546.924 C 546.824 13.000 546.924 13.100 546.924 13.000 V 10.100 C 546.924 10.045 546.880 10.000 546.824 10.000 H 540.824 C 540.769 10.000 540.724 10.045 540.724 10.100 V 13.000 C 540.724 13.100 540.824 13.000 540.724 13.000 H 534.924 C 534.824 13.000 534.924 13.100 534.924 13.000 V 10.100 C 534.924 10.045 534.880 10.000 534.824 10.000 H 527.667 H 525.150 C 525.095 10.000 525.050 10.045 525.050 10.100 V 13.100 V 20.100 C 525.050 20.155 525.095 20.200 525.150 20.200 H 528.004 C 528.104 20.200 528.004 20.100 528.004 20.200 V 26.000 C 528.004 26.100 528.104 26.000 528.004 26.000 H 525.150 C 525.095 26.000 525.050 26.045 525.050 26.100 V 32.100 C 525.050 32.155 525.095 32.200 525.150 32.200 H 528.004 C 528.104 32.200 528.004 32.100 528.004 32.200 V 38.000 C 528.004 38.100 528.104 38.000 528.004 38.000 H 525.150 C 525.095 38.000 525.050 38.045 525.050 38.100 V 44.100 C 525.050 44.155 525.095 44.200 525.150 44.200 H 528.004 C 528.104 44.200 528.004 44.100 528.004 44.200 V 50.000 C 528.004 50.100 528.104 50.000 528.004 50.000 H 525.150 C 525.095 50.000 525.050 50.045 525.050 50.100 V 56.100 C 525.050 56.155 525.095 56.200 525.150 56.200 H 528.004 C 528.104 56.200 528.004 56.100 528.004 56.200 V 62.000 C 528.004 62.100 528.104 62.000 528.004 62.000 H 525.150 C 525.095 62.000 525.050 62.045 525.050 62.100 V 68.100 C 525.050 68.155 525.095 68.200 525.150 68.200 H 528.004 C 528.104 68.200 528.004 68.100 528.004 68.200 V 74.000 C 528.004 74.100 528.104 74.000 528.004 74.000 H 525.150 C 525.095 74.000 525.050 74.045 525.050 74.100 V 80.100 C 525.050 80.155 525.095 80.200 525.150 80.200 H 528.004 C 528.104 80.200 528.004 80.100 528.004 80.200 V 86.000 C 528.004 86.100 528.104 86.000 528.004 86.000 H 525.150 C 525.095 86.000 525.050 86.045 525.050 86.100 V 92.100 C 525.050 92.155 525.095 92.200 525.150 92.200 H 528.004 C 528.104 92.200 528.004 92.100 528.004 92.200 V 98.000 C 528.004 98.100 528.104 98.000 528.004 98.000 H 525.150 C 525.095 98.000 525.050 98.045 525.050 98.100 V 104.100 C 525.050 104.155 525.095 104.200 525.150 104.200 H 528.004 C 528.104 104.200 528.004 104.100 528.004 104.200 V 110.000 C 528.004 110.100 528.104 110.000 528.004 110.000 H 525.150 C 525.095 110.000 525.050 110.045 525.050 110.100 V 116.100 C 525.050 116.155 525.095 116.200 525.150 116.200 H 528.004 C 528.104 116.200 528.004 116.100 528.004 116.200 V 122.000 C 528.004 122.100 528.104 122.000 528.004 122.000 H 525.150 C 525.095 122.000 525.050 122.045 525.050 122.100 V 128.100 C 525.050 128.155 525.095 128.200 525.150 128.200 H 528.004 C 528.104 128.200 528.004 128.100 528.004 128.200 V 134.000 C 528.004 134.100 528.104 134.000 528.004 134.000 H 525.150 C 525.095 134.000 525.050 134.045 525.050 134.100 V 140.100 C 525.050 140.155 525.095 140.200 525.150 140.200 H 528.004 C 528.104 140.200 528.004 140.100 528.004 140.200 V 146.000 C 528.004 146.100 528.104 146.000 528.004 146.000 H 525.150 C 525.095 146.000 525.050 146.045 525.050 146.100 V 152.100 C 525.050 152.155 525.095 152.200 525.150 152.200 H 528.004 C 528.104 152.200 528.004 152.100 528.004 152.200 V 158.000 C 528.004 158.100 528.104 158.000 528.004 158.000 H 525.150 C 525.095 158.000 525.050 158.045 525.050 158.100 V 164.100 C 525.050 164.155 525.095 164.200 525.150 164.200 H 528.004 C 528.104 164.200 528.004 164.100 528.004 164.200 V 170.000 C 528.004 170.100 528.104 170.000 528.004 170.000 H 525.150 C 525.095 170.000 525.050 170.045 525.050 170.100 V 176.100 C 525.050 176.155 525.095 176.200 525.150 176.200 H 528.004 C 528.104 176.200 528.004 176.100 528.004 176.200 V 182.000 C 528.004 182.100 528.104 182.000 528.004 182.000 H 525.150 C 525.095 182.000 525.050 182.045 525.050 182.100 V 188.100 C 525.050 188.155 525.095 188.200 525.150 188.200 H 528.004 C 528.104 188.200 528.004 188.100 528.004 188.200 V 194.000 C 528.004 194.100 528.104 194.000 528.004 194.000 H 525.150 C 525.095 194.000 525.050 194.045 525.050 194.100 V 200.100 C 525.050 200.155 525.095 200.200 525.150 200.200 H 528.004 C 528.104 200.200 528.004 200.100 528.004 200.200 V 206.000 C 528.004 206.100 528.104 206.000 528.004 206.000 H 525.150 C 525.095 206.000 525.050 206.045 525.050 206.100 V 213.100 V 216.100 C 525.050 216.155 525.095 216.200 525.150 216.200 H 527.667 Z" fill-rule="nonzero"></path><ellipse transform="matrix(0.0023492,0,0,0.00229456,168.517594,45.604712) scale(100)" stroke="#fe0002" fill="none" vector-effect="non-scaling-stroke" data-view-type="laser" cx="5.533798232769897" cy="5.665563633116022" rx="5.533798232769897" ry="5.665563633116022"></ellipse><ellipse transform="matrix(0.0023492,0,0,0.00229456,188.517594,45.604712) scale(100)" stroke="#fe0002" fill="none" vector-effect="non-scaling-stroke" data-view-type="laser" cx="5.533798232769897" cy="5.665563633116022" rx="5.533798232769897" ry="5.665563633116022"></ellipse><ellipse transform="matrix(0.0103907,0,0,0.010149,66.154946,38.858666) scale(100)" stroke="#fe0002" fill="none" vector-effect="non-scaling-stroke" data-view-type="laser" cx="5.533798232769897" cy="5.665563633116022" rx="5.533798232769897" ry="5.665563633116022"></ellipse><rect transform="matrix(1,0,0,1,187.817594,49.704712)" stroke="#fe0002" fill="none" vector-effect="non-scaling-stroke" data-view-type="laser" x="0" y="0" width="4.0000000000000195" height="113.99999999999908"></rect><rect transform="matrix(1,0,0,1,167.817594,49.704712)" stroke="#fe0002" fill="none" vector-effect="non-scaling-stroke" data-view-type="laser" x="0" y="0" width="4.000000000000149" height="113.99999999999909"></rect><ellipse transform="matrix(0.0023492,0,0,0.00229456,168.517594,165.704712) scale(100)" stroke="#fe0002" fill="none" vector-effect="non-scaling-stroke" data-view-type="laser" cx="5.533798232769897" cy="5.665563633116022" rx="5.533798232769897" ry="5.665563633116022"></ellipse><ellipse transform="matrix(0.0023492,0,0,0.00229456,188.517594,165.704712) scale(100)" stroke="#fe0002" fill="none" vector-effect="non-scaling-stroke" data-view-type="laser" cx="5.533798232769897" cy="5.665563633116022" rx="5.533798232769897" ry="5.665563633116022"></ellipse><ellipse transform="matrix(0.0103907,0,0,0.010149,46.155873,38.858666) scale(100)" stroke="#fe0002" fill="none" vector-effect="non-scaling-stroke" data-view-type="laser" cx="5.533798232769897" cy="5.665563633116022" rx="5.533798232769897" ry="5.665563633116022"></ellipse><ellipse transform="matrix(0.0103907,0,0,0.010149,26.1568,38.858666) scale(100)" stroke="#fe0002" fill="none" vector-effect="non-scaling-stroke" data-view-type="laser" cx="5.533798232769897" cy="5.665563633116022" rx="5.533798232769897" ry="5.665563633116022"></ellipse><ellipse transform="matrix(0.0103907,0,0,0.010149,86.388546,113.467149) scale(100)" stroke="#fe0002" fill="none" vector-effect="non-scaling-stroke" data-view-type="laser" cx="5.533798232769897" cy="5.665563633116022" rx="5.533798232769897" ry="5.665563633116022"></ellipse><g transform="matrix(0.322754,0,0,0.322754,201.166814,109.643388)" stroke="none" fill="#2366ff" data-view-type="laser"><path transform="matrix(1,0,0,1,-1.13687e-13,0)" stroke="none" fill="#2366ff" data-view-type="laser" d="M13.97 -9.09Q13.97 -6.71 13.46 -4.96Q12.94 -3.21 12.05 -2.07Q11.16 -0.93 9.95 -0.37Q8.74 0.19 7.35 0.19Q5.96 0.19 4.76 -0.37Q3.56 -0.93 2.67 -2.07Q1.78 -3.21 1.27 -4.96Q0.76 -6.71 0.76 -9.09Q0.76 -11.48 1.27 -13.23Q1.78 -14.99 2.67 -16.14Q3.56 -17.28 4.76 -17.84Q5.96 -18.4 7.35 -18.4Q8.74 -18.4 9.95 -17.84Q11.16 -17.28 12.05 -16.14Q12.94 -14.99 13.46 -13.23Q13.97 -11.48 13.97 -9.09ZM11.62 -9.09Q11.62 -11.18 11.27 -12.59Q10.92 -14.01 10.33 -14.87Q9.74 -15.74 8.97 -16.11Q8.19 -16.48 7.35 -16.48Q6.52 -16.48 5.74 -16.11Q4.97 -15.74 4.38 -14.87Q3.8 -14.01 3.45 -12.59Q3.1 -11.18 3.1 -9.09Q3.1 -7.01 3.45 -5.6Q3.8 -4.19 4.38 -3.33Q4.97 -2.46 5.74 -2.09Q6.52 -1.71 7.35 -1.71Q8.19 -1.71 8.97 -2.09Q9.74 -2.46 10.33 -3.33Q10.92 -4.19 11.27 -5.6Q11.62 -7.01 11.62 -9.09Z" fill-rule="nonzero"></path></g><g transform="matrix(0.322754,0,0,0.322754,193.988116,59.143388)" stroke="none" fill="#2366ff" data-view-type="laser"><path transform="matrix(1,0,0,1,0,-2.84217e-14)" stroke="none" fill="#2366ff" data-view-type="laser" d="M3.64 -1.73L7.56 -1.73L7.56 -14.14Q7.56 -14.69 7.59 -15.27L4.34 -12.48Q4.22 -12.38 4.09 -12.34Q3.96 -12.29 3.85 -12.29Q3.66 -12.29 3.51 -12.38Q3.35 -12.46 3.28 -12.57L2.57 -13.55L7.98 -18.24L9.82 -18.24L9.82 -1.73L13.4 -1.73L13.4 0L3.64 0Z" fill-rule="nonzero"></path>
<path transform="matrix(1,0,0,1,14.732,-2.84217e-14)" stroke="none" fill="#2366ff" data-view-type="laser" d="M13.97 -9.09Q13.97 -6.71 13.46 -4.96Q12.94 -3.21 12.05 -2.07Q11.16 -0.93 9.95 -0.37Q8.74 0.19 7.35 0.19Q5.96 0.19 4.76 -0.37Q3.56 -0.93 2.67 -2.07Q1.78 -3.21 1.27 -4.96Q0.76 -6.71 0.76 -9.09Q0.76 -11.48 1.27 -13.23Q1.78 -14.99 2.67 -16.14Q3.56 -17.28 4.76 -17.84Q5.96 -18.4 7.35 -18.4Q8.74 -18.4 9.95 -17.84Q11.16 -17.28 12.05 -16.14Q12.94 -14.99 13.46 -13.23Q13.97 -11.48 13.97 -9.09ZM11.62 -9.09Q11.62 -11.18 11.27 -12.59Q10.92 -14.01 10.33 -14.87Q9.74 -15.74 8.97 -16.11Q8.19 -16.48 7.35 -16.48Q6.52 -16.48 5.74 -16.11Q4.97 -15.74 4.38 -14.87Q3.8 -14.01 3.45 -12.59Q3.1 -11.18 3.1 -9.09Q3.1 -7.01 3.45 -5.6Q3.8 -4.19 4.38 -3.33Q4.97 -2.46 5.74 -2.09Q6.52 -1.71 7.35 -1.71Q8.19 -1.71 8.97 -2.09Q9.74 -2.46 10.33 -3.33Q10.92 -4.19 11.27 -5.6Q11.62 -7.01 11.62 -9.09Z" fill-rule="nonzero"></path>
<path transform="matrix(1,0,0,1,29.464,-2.84217e-14)" stroke="none" fill="#2366ff" data-view-type="laser" d="M13.97 -9.09Q13.97 -6.71 13.46 -4.96Q12.94 -3.21 12.05 -2.07Q11.16 -0.93 9.95 -0.37Q8.74 0.19 7.35 0.19Q5.96 0.19 4.76 -0.37Q3.56 -0.93 2.67 -2.07Q1.78 -3.21 1.27 -4.96Q0.76 -6.71 0.76 -9.09Q0.76 -11.48 1.27 -13.23Q1.78 -14.99 2.67 -16.14Q3.56 -17.28 4.76 -17.84Q5.96 -18.4 7.35 -18.4Q8.74 -18.4 9.95 -17.84Q11.16 -17.28 12.05 -16.14Q12.94 -14.99 13.46 -13.23Q13.97 -11.48 13.97 -9.09ZM11.62 -9.09Q11.62 -11.18 11.27 -12.59Q10.92 -14.01 10.33 -14.87Q9.74 -15.74 8.97 -16.11Q8.19 -16.48 7.35 -16.48Q6.52 -16.48 5.74 -16.11Q4.97 -15.74 4.38 -14.87Q3.8 -14.01 3.45 -12.59Q3.1 -11.18 3.1 -9.09Q3.1 -7.01 3.45 -5.6Q3.8 -4.19 4.38 -3.33Q4.97 -2.46 5.74 -2.09Q6.52 -1.71 7.35 -1.71Q8.19 -1.71 8.97 -2.09Q9.74 -2.46 10.33 -3.33Q10.92 -4.19 11.27 -5.6Q11.62 -7.01 11.62 -9.09Z" fill-rule="nonzero"></path></g><g transform="matrix(0.406088,0,0,0.406088,92.088041,46.579868)" stroke="none" fill="#2366ff" data-view-type="laser"><path transform="matrix(1,0,0,1,-5.68434e-14,0)" stroke="none" fill="#2366ff" data-view-type="laser" d="M11.53 -15.35Q11.42 -15.16 11.29 -15.07Q11.16 -14.97 10.96 -14.97Q10.74 -14.97 10.46 -15.19Q10.17 -15.41 9.73 -15.67Q9.3 -15.93 8.68 -16.14Q8.06 -16.36 7.19 -16.36Q6.36 -16.36 5.73 -16.14Q5.09 -15.91 4.67 -15.53Q4.24 -15.15 4.03 -14.64Q3.81 -14.12 3.81 -13.53Q3.81 -12.76 4.18 -12.26Q4.56 -11.76 5.18 -11.4Q5.79 -11.05 6.57 -10.79Q7.35 -10.53 8.17 -10.25Q8.99 -9.97 9.77 -9.62Q10.55 -9.27 11.17 -8.74Q11.79 -8.2 12.16 -7.43Q12.53 -6.65 12.53 -5.52Q12.53 -4.33 12.13 -3.28Q11.72 -2.24 10.94 -1.46Q10.16 -0.69 9.02 -0.24Q7.89 0.2 6.44 0.2Q4.67 0.2 3.22 -0.44Q1.77 -1.08 0.74 -2.17L1.45 -3.34Q1.55 -3.48 1.7 -3.58Q1.84 -3.67 2.02 -3.67Q2.29 -3.67 2.63 -3.38Q2.97 -3.1 3.49 -2.76Q4 -2.41 4.73 -2.13Q5.46 -1.84 6.52 -1.84Q7.39 -1.84 8.08 -2.08Q8.76 -2.32 9.24 -2.76Q9.72 -3.2 9.97 -3.81Q10.22 -4.42 10.22 -5.17Q10.22 -5.99 9.85 -6.52Q9.47 -7.05 8.86 -7.4Q8.25 -7.76 7.47 -8.01Q6.69 -8.25 5.87 -8.52Q5.05 -8.78 4.27 -9.12Q3.49 -9.46 2.88 -10.01Q2.27 -10.55 1.9 -11.37Q1.52 -12.19 1.52 -13.4Q1.52 -14.36 1.9 -15.27Q2.27 -16.17 2.98 -16.87Q3.7 -17.56 4.74 -17.98Q5.79 -18.4 7.15 -18.4Q8.67 -18.4 9.93 -17.92Q11.19 -17.44 12.13 -16.52Z" fill-rule="nonzero"></path>
<path transform="matrix(1,0,0,1,13.462,0)" stroke="none" fill="#2366ff" data-view-type="laser" d="M1.85 0L1.85 -18.71L4.11 -18.71L4.11 -11.14Q4.94 -12.01 5.94 -12.54Q6.95 -13.07 8.25 -13.07Q9.31 -13.07 10.12 -12.72Q10.92 -12.37 11.46 -11.73Q12 -11.09 12.28 -10.19Q12.56 -9.28 12.56 -8.19L12.56 0L10.3 0L10.3 -8.19Q10.3 -9.65 9.63 -10.46Q8.97 -11.26 7.59 -11.26Q6.59 -11.26 5.72 -10.78Q4.85 -10.3 4.11 -9.47L4.11 0Z" fill-rule="nonzero"></path>
<path transform="matrix(1,0,0,1,27.5844,0)" stroke="none" fill="#2366ff" data-view-type="laser" d="M4.37 -12.87L4.37 0L2.11 0L2.11 -12.87ZM4.88 -16.9Q4.88 -16.57 4.74 -16.29Q4.61 -16 4.39 -15.78Q4.17 -15.56 3.87 -15.43Q3.58 -15.3 3.25 -15.3Q2.92 -15.3 2.64 -15.43Q2.35 -15.56 2.13 -15.78Q1.91 -16 1.78 -16.29Q1.65 -16.57 1.65 -16.9Q1.65 -17.23 1.78 -17.53Q1.91 -17.83 2.13 -18.05Q2.35 -18.28 2.64 -18.4Q2.92 -18.53 3.25 -18.53Q3.58 -18.53 3.87 -18.4Q4.17 -18.28 4.39 -18.05Q4.61 -17.83 4.74 -17.53Q4.88 -17.23 4.88 -16.9Z" fill-rule="nonzero"></path>
<path transform="matrix(1,0,0,1,34.0868,0)" stroke="none" fill="#2366ff" data-view-type="laser" d="M1.85 4.36L1.85 -12.87L3.2 -12.87Q3.68 -12.87 3.81 -12.4L4 -10.87Q4.83 -11.87 5.89 -12.48Q6.95 -13.09 8.33 -13.09Q9.44 -13.09 10.34 -12.67Q11.24 -12.24 11.87 -11.41Q12.51 -10.58 12.85 -9.35Q13.2 -8.12 13.2 -6.52Q13.2 -5.09 12.81 -3.87Q12.43 -2.64 11.72 -1.75Q11.01 -0.85 9.98 -0.34Q8.94 0.18 7.65 0.18Q6.45 0.18 5.61 -0.22Q4.76 -0.61 4.11 -1.33L4.11 4.36ZM7.58 -11.26Q6.48 -11.26 5.65 -10.76Q4.81 -10.25 4.11 -9.32L4.11 -3.1Q4.74 -2.26 5.48 -1.92Q6.22 -1.57 7.14 -1.57Q8.93 -1.57 9.89 -2.86Q10.86 -4.14 10.86 -6.52Q10.86 -7.77 10.64 -8.67Q10.41 -9.58 9.99 -10.15Q9.58 -10.73 8.97 -11Q8.36 -11.26 7.58 -11.26Z" fill-rule="nonzero"></path>
<path transform="matrix(1,0,0,1,48.1076,0)" stroke="none" fill="#2366ff" data-view-type="laser" d="M15.04 -3.76Q15.24 -3.76 15.41 -3.59L16.37 -2.54Q15.25 -1.24 13.66 -0.52Q12.07 0.2 9.82 0.2Q7.85 0.2 6.25 -0.48Q4.65 -1.16 3.52 -2.38Q2.39 -3.61 1.77 -5.32Q1.14 -7.04 1.14 -9.09Q1.14 -11.15 1.81 -12.87Q2.48 -14.58 3.68 -15.81Q4.89 -17.04 6.57 -17.72Q8.25 -18.4 10.29 -18.4Q12.29 -18.4 13.75 -17.78Q15.2 -17.16 16.33 -16.09L15.53 -14.96Q15.44 -14.83 15.33 -14.75Q15.21 -14.67 15 -14.67Q14.83 -14.67 14.65 -14.79Q14.47 -14.91 14.21 -15.09Q13.96 -15.27 13.61 -15.47Q13.27 -15.67 12.8 -15.85Q12.33 -16.03 11.71 -16.15Q11.09 -16.27 10.27 -16.27Q8.81 -16.27 7.6 -15.77Q6.39 -15.27 5.51 -14.34Q4.64 -13.41 4.15 -12.08Q3.66 -10.74 3.66 -9.09Q3.66 -7.39 4.15 -6.06Q4.64 -4.72 5.48 -3.8Q6.32 -2.88 7.48 -2.4Q8.64 -1.92 9.97 -1.92Q10.78 -1.92 11.43 -2.01Q12.08 -2.11 12.63 -2.31Q13.18 -2.51 13.66 -2.83Q14.14 -3.14 14.62 -3.57Q14.83 -3.76 15.04 -3.76Z" fill-rule="nonzero"></path>
<path transform="matrix(1,0,0,1,65.5066,0)" stroke="none" fill="#2366ff" data-view-type="laser" d="M7.06 -13.07Q8.47 -13.07 9.61 -12.6Q10.74 -12.13 11.54 -11.26Q12.33 -10.4 12.76 -9.18Q13.18 -7.95 13.18 -6.44Q13.18 -4.91 12.76 -3.7Q12.33 -2.48 11.54 -1.61Q10.74 -0.75 9.61 -0.29Q8.47 0.18 7.06 0.18Q5.65 0.18 4.51 -0.29Q3.38 -0.75 2.58 -1.61Q1.78 -2.48 1.35 -3.7Q0.91 -4.91 0.91 -6.44Q0.91 -7.95 1.35 -9.18Q1.78 -10.4 2.58 -11.26Q3.38 -12.13 4.51 -12.6Q5.65 -13.07 7.06 -13.07ZM7.06 -1.59Q8.97 -1.59 9.91 -2.86Q10.85 -4.14 10.85 -6.43Q10.85 -8.72 9.91 -10.01Q8.97 -11.29 7.06 -11.29Q6.1 -11.29 5.38 -10.96Q4.67 -10.63 4.2 -10.01Q3.72 -9.39 3.49 -8.48Q3.25 -7.57 3.25 -6.43Q3.25 -5.28 3.49 -4.38Q3.72 -3.48 4.2 -2.86Q4.67 -2.25 5.38 -1.92Q6.1 -1.59 7.06 -1.59Z" fill-rule="nonzero"></path>
<path transform="matrix(1,0,0,1,79.629,0)" stroke="none" fill="#2366ff" data-view-type="laser" d="M1.85 0L1.85 -12.87L3.2 -12.87Q3.68 -12.87 3.81 -12.4L3.99 -11Q4.83 -11.93 5.86 -12.5Q6.9 -13.07 8.25 -13.07Q9.31 -13.07 10.12 -12.72Q10.92 -12.37 11.46 -11.73Q12 -11.09 12.28 -10.19Q12.56 -9.28 12.56 -8.19L12.56 0L10.3 0L10.3 -8.19Q10.3 -9.65 9.63 -10.46Q8.97 -11.26 7.59 -11.26Q6.59 -11.26 5.72 -10.78Q4.85 -10.3 4.11 -9.47L4.11 0Z" fill-rule="nonzero"></path>
<path transform="matrix(1,0,0,1,93.7514,0)" stroke="none" fill="#2366ff" data-view-type="laser" d="M5.75 0.2Q4.23 0.2 3.41 -0.65Q2.59 -1.5 2.59 -3.1L2.59 -10.97L1.04 -10.97Q0.84 -10.97 0.7 -11.09Q0.56 -11.21 0.56 -11.47L0.56 -12.37L2.67 -12.64L3.19 -16.61Q3.21 -16.8 3.35 -16.92Q3.49 -17.04 3.71 -17.04L4.85 -17.04L4.85 -12.61L8.53 -12.61L8.53 -10.97L4.85 -10.97L4.85 -3.25Q4.85 -2.44 5.25 -2.04Q5.64 -1.65 6.26 -1.65Q6.62 -1.65 6.88 -1.75Q7.14 -1.84 7.33 -1.96Q7.52 -2.07 7.65 -2.17Q7.79 -2.26 7.89 -2.26Q8.06 -2.26 8.2 -2.04L8.86 -0.97Q8.28 -0.42 7.45 -0.11Q6.63 0.2 5.75 0.2Z" fill-rule="nonzero"></path>
<path transform="matrix(1,0,0,1,103.2256,0)" stroke="none" fill="#2366ff" data-view-type="laser" d="M1.85 0L1.85 -12.87L3.15 -12.87Q3.52 -12.87 3.66 -12.73Q3.8 -12.59 3.85 -12.24L4 -10.24Q4.66 -11.58 5.63 -12.34Q6.6 -13.09 7.91 -13.09Q8.45 -13.09 8.88 -12.97Q9.31 -12.85 9.68 -12.64L9.39 -10.95Q9.3 -10.63 8.99 -10.63Q8.81 -10.63 8.45 -10.75Q8.08 -10.87 7.42 -10.87Q6.24 -10.87 5.44 -10.19Q4.65 -9.5 4.11 -8.19L4.11 0Z" fill-rule="nonzero"></path>
<path transform="matrix(1,0,0,1,113.4618,0)" stroke="none" fill="#2366ff" data-view-type="laser" d="M7.06 -13.07Q8.47 -13.07 9.61 -12.6Q10.74 -12.13 11.54 -11.26Q12.33 -10.4 12.76 -9.18Q13.18 -7.95 13.18 -6.44Q13.18 -4.91 12.76 -3.7Q12.33 -2.48 11.54 -1.61Q10.74 -0.75 9.61 -0.29Q8.47 0.18 7.06 0.18Q5.65 0.18 4.51 -0.29Q3.38 -0.75 2.58 -1.61Q1.78 -2.48 1.35 -3.7Q0.91 -4.91 0.91 -6.44Q0.91 -7.95 1.35 -9.18Q1.78 -10.4 2.58 -11.26Q3.38 -12.13 4.51 -12.6Q5.65 -13.07 7.06 -13.07ZM7.06 -1.59Q8.97 -1.59 9.91 -2.86Q10.85 -4.14 10.85 -6.43Q10.85 -8.72 9.91 -10.01Q8.97 -11.29 7.06 -11.29Q6.1 -11.29 5.38 -10.96Q4.67 -10.63 4.2 -10.01Q3.72 -9.39 3.49 -8.48Q3.25 -7.57 3.25 -6.43Q3.25 -5.28 3.49 -4.38Q3.72 -3.48 4.2 -2.86Q4.67 -2.25 5.38 -1.92Q6.1 -1.59 7.06 -1.59Z" fill-rule="nonzero"></path>
<path transform="matrix(1,0,0,1,127.5842,0)" stroke="none" fill="#2366ff" data-view-type="laser" d="M4.37 -18.71L4.37 0L2.11 0L2.11 -18.71Z" fill-rule="nonzero"></path>
<path transform="matrix(1,0,0,1,134.0866,0)" stroke="none" fill="#2366ff" data-view-type="laser" d="M4.37 -18.71L4.37 0L2.11 0L2.11 -18.71Z" fill-rule="nonzero"></path>
<path transform="matrix(1,0,0,1,140.589,0)" stroke="none" fill="#2366ff" data-view-type="laser" d="M6.95 -13.07Q8.1 -13.07 9.08 -12.68Q10.06 -12.29 10.77 -11.56Q11.48 -10.83 11.88 -9.76Q12.28 -8.69 12.28 -7.32Q12.28 -6.78 12.17 -6.6Q12.05 -6.43 11.73 -6.43L3.18 -6.43Q3.2 -5.21 3.51 -4.31Q3.81 -3.4 4.34 -2.8Q4.88 -2.2 5.61 -1.9Q6.35 -1.6 7.26 -1.6Q8.12 -1.6 8.73 -1.8Q9.35 -1.99 9.79 -2.22Q10.24 -2.45 10.53 -2.65Q10.83 -2.84 11.05 -2.84Q11.33 -2.84 11.48 -2.63L12.12 -1.8Q11.7 -1.3 11.11 -0.92Q10.53 -0.55 9.86 -0.3Q9.19 -0.06 8.48 0.06Q7.77 0.18 7.07 0.18Q5.74 0.18 4.62 -0.27Q3.49 -0.72 2.67 -1.59Q1.85 -2.46 1.4 -3.75Q0.94 -5.03 0.94 -6.69Q0.94 -8.04 1.35 -9.21Q1.77 -10.38 2.54 -11.23Q3.31 -12.09 4.43 -12.58Q5.55 -13.07 6.95 -13.07ZM7 -11.4Q5.36 -11.4 4.42 -10.46Q3.48 -9.51 3.25 -7.84L10.25 -7.84Q10.25 -8.62 10.03 -9.28Q9.82 -9.93 9.4 -10.41Q8.98 -10.88 8.38 -11.14Q7.77 -11.4 7 -11.4Z" fill-rule="nonzero"></path>
<path transform="matrix(1,0,0,1,153.8986,0)" stroke="none" fill="#2366ff" data-view-type="laser" d="M1.85 0L1.85 -12.87L3.15 -12.87Q3.52 -12.87 3.66 -12.73Q3.8 -12.59 3.85 -12.24L4 -10.24Q4.66 -11.58 5.63 -12.34Q6.6 -13.09 7.91 -13.09Q8.45 -13.09 8.88 -12.97Q9.31 -12.85 9.68 -12.64L9.39 -10.95Q9.3 -10.63 8.99 -10.63Q8.81 -10.63 8.45 -10.75Q8.08 -10.87 7.42 -10.87Q6.24 -10.87 5.44 -10.19Q4.65 -9.5 4.11 -8.19L4.11 0Z" fill-rule="nonzero"></path>
<path transform="matrix(1,0,0,1,63.1952,30.48)" stroke="none" fill="#2366ff" data-view-type="laser" d="M0.23 -12.87L2.08 -12.87Q2.35 -12.87 2.53 -12.73Q2.71 -12.59 2.78 -12.4L6.05 -4.11Q6.22 -3.66 6.32 -3.2Q6.43 -2.74 6.52 -2.3Q6.62 -2.74 6.73 -3.2Q6.85 -3.66 7.02 -4.11L10.33 -12.4Q10.4 -12.6 10.57 -12.73Q10.74 -12.87 11 -12.87L12.76 -12.87L7.52 0L5.47 0Z" fill-rule="nonzero"></path>
<path transform="matrix(1,0,0,1,76.2,30.48)" stroke="none" fill="#2366ff" data-view-type="laser" d="M10.01 2.1L10.01 3.62L0 3.62L0 2.1Z" fill-rule="nonzero"></path>
<path transform="matrix(1,0,0,1,86.2076,30.48)" stroke="none" fill="#2366ff" data-view-type="laser" d="M13.97 -9.09Q13.97 -6.71 13.46 -4.96Q12.94 -3.21 12.05 -2.07Q11.16 -0.93 9.95 -0.37Q8.74 0.19 7.35 0.19Q5.96 0.19 4.76 -0.37Q3.56 -0.93 2.67 -2.07Q1.78 -3.21 1.27 -4.96Q0.76 -6.71 0.76 -9.09Q0.76 -11.48 1.27 -13.23Q1.78 -14.99 2.67 -16.14Q3.56 -17.28 4.76 -17.84Q5.96 -18.4 7.35 -18.4Q8.74 -18.4 9.95 -17.84Q11.16 -17.28 12.05 -16.14Q12.94 -14.99 13.46 -13.23Q13.97 -11.48 13.97 -9.09ZM11.62 -9.09Q11.62 -11.18 11.27 -12.59Q10.92 -14.01 10.33 -14.87Q9.74 -15.74 8.97 -16.11Q8.19 -16.48 7.35 -16.48Q6.52 -16.48 5.74 -16.11Q4.97 -15.74 4.38 -14.87Q3.8 -14.01 3.45 -12.59Q3.1 -11.18 3.1 -9.09Q3.1 -7.01 3.45 -5.6Q3.8 -4.19 4.38 -3.33Q4.97 -2.46 5.74 -2.09Q6.52 -1.71 7.35 -1.71Q8.19 -1.71 8.97 -2.09Q9.74 -2.46 10.33 -3.33Q10.92 -4.19 11.27 -5.6Q11.62 -7.01 11.62 -9.09Z" fill-rule="nonzero"></path></g><g transform="matrix(0.322754,0,0,0.322754,193.988116,159.443388)" stroke="none" fill="#2366ff" data-view-type="laser"><path transform="matrix(1,0,0,1,0,0)" stroke="none" fill="#2366ff" data-view-type="laser" d="M3.64 -1.73L7.56 -1.73L7.56 -14.14Q7.56 -14.69 7.59 -15.27L4.34 -12.48Q4.22 -12.38 4.09 -12.34Q3.96 -12.29 3.85 -12.29Q3.66 -12.29 3.51 -12.38Q3.35 -12.46 3.28 -12.57L2.57 -13.55L7.98 -18.24L9.82 -18.24L9.82 -1.73L13.4 -1.73L13.4 0L3.64 0Z" fill-rule="nonzero"></path>
<path transform="matrix(1,0,0,1,14.732,0)" stroke="none" fill="#2366ff" data-view-type="laser" d="M13.97 -9.09Q13.97 -6.71 13.46 -4.96Q12.94 -3.21 12.05 -2.07Q11.16 -0.93 9.95 -0.37Q8.74 0.19 7.35 0.19Q5.96 0.19 4.76 -0.37Q3.56 -0.93 2.67 -2.07Q1.78 -3.21 1.27 -4.96Q0.76 -6.71 0.76 -9.09Q0.76 -11.48 1.27 -13.23Q1.78 -14.99 2.67 -16.14Q3.56 -17.28 4.76 -17.84Q5.96 -18.4 7.35 -18.4Q8.74 -18.4 9.95 -17.84Q11.16 -17.28 12.05 -16.14Q12.94 -14.99 13.46 -13.23Q13.97 -11.48 13.97 -9.09ZM11.62 -9.09Q11.62 -11.18 11.27 -12.59Q10.92 -14.01 10.33 -14.87Q9.74 -15.74 8.97 -16.11Q8.19 -16.48 7.35 -16.48Q6.52 -16.48 5.74 -16.11Q4.97 -15.74 4.38 -14.87Q3.8 -14.01 3.45 -12.59Q3.1 -11.18 3.1 -9.09Q3.1 -7.01 3.45 -5.6Q3.8 -4.19 4.38 -3.33Q4.97 -2.46 5.74 -2.09Q6.52 -1.71 7.35 -1.71Q8.19 -1.71 8.97 -2.09Q9.74 -2.46 10.33 -3.33Q10.92 -4.19 11.27 -5.6Q11.62 -7.01 11.62 -9.09Z" fill-rule="nonzero"></path>
<path transform="matrix(1,0,0,1,29.464,0)" stroke="none" fill="#2366ff" data-view-type="laser" d="M13.97 -9.09Q13.97 -6.71 13.46 -4.96Q12.94 -3.21 12.05 -2.07Q11.16 -0.93 9.95 -0.37Q8.74 0.19 7.35 0.19Q5.96 0.19 4.76 -0.37Q3.56 -0.93 2.67 -2.07Q1.78 -3.21 1.27 -4.96Q0.76 -6.71 0.76 -9.09Q0.76 -11.48 1.27 -13.23Q1.78 -14.99 2.67 -16.14Q3.56 -17.28 4.76 -17.84Q5.96 -18.4 7.35 -18.4Q8.74 -18.4 9.95 -17.84Q11.16 -17.28 12.05 -16.14Q12.94 -14.99 13.46 -13.23Q13.97 -11.48 13.97 -9.09ZM11.62 -9.09Q11.62 -11.18 11.27 -12.59Q10.92 -14.01 10.33 -14.87Q9.74 -15.74 8.97 -16.11Q8.19 -16.48 7.35 -16.48Q6.52 -16.48 5.74 -16.11Q4.97 -15.74 4.38 -14.87Q3.8 -14.01 3.45 -12.59Q3.1 -11.18 3.1 -9.09Q3.1 -7.01 3.45 -5.6Q3.8 -4.19 4.38 -3.33Q4.97 -2.46 5.74 -2.09Q6.52 -1.71 7.35 -1.71Q8.19 -1.71 8.97 -2.09Q9.74 -2.46 10.33 -3.33Q10.92 -4.19 11.27 -5.6Q11.62 -7.01 11.62 -9.09Z" fill-rule="nonzero"></path></g><rect transform="matrix(1,0,0,1,164.817594,131.320849)" stroke="none" fill="#2366ff" data-view-type="laser" x="0" y="0" width="29.99999999999735" height="1.4999999999998894"></rect><rect transform="matrix(1,0,0,1,164.817594,156.354712)" stroke="none" fill="#2366ff" data-view-type="laser" x="0" y="0" width="29.99999999999735" height="1.4999999999998894"></rect><rect transform="matrix(1,0,0,1,164.817594,81.253125)" stroke="none" fill="#2366ff" data-view-type="laser" x="0" y="0" width="29.99999999999924" height="1.4999999999999671"></rect><rect transform="matrix(1,0,0,1,164.817594,56.219263)" stroke="none" fill="#2366ff" data-view-type="laser" x="0" y="0" width="29.99999999999814" height="1.4999999999999214"></rect><rect transform="matrix(1,0,0,1,164.817594,106.286987)" stroke="none" fill="#2366ff" data-view-type="laser" x="0" y="0" width="29.99999999999875" height="1.4999999999999505"></rect><g transform="matrix(0.275913,0,0,0.275913,84.341411,132.594383)" stroke="none" fill="#2366ff" data-view-type="laser"><path transform="matrix(1,0,0,1,0,-1.13687e-13)" stroke="none" fill="#2366ff" data-view-type="laser" d="M16.97 0L14.49 0L14.49 -8.28L4.69 -8.28L4.69 0L2.21 0L2.21 -18.2L4.69 -18.2L4.69 -10.08L14.49 -10.08L14.49 -18.2L16.97 -18.2Z" fill-rule="nonzero"></path>
<path transform="matrix(1,0,0,1,19.2024,-1.13687e-13)" stroke="none" fill="#2366ff" data-view-type="laser" d="M7.06 -13.07Q8.47 -13.07 9.61 -12.6Q10.74 -12.13 11.54 -11.26Q12.33 -10.4 12.76 -9.18Q13.18 -7.95 13.18 -6.44Q13.18 -4.91 12.76 -3.7Q12.33 -2.48 11.54 -1.61Q10.74 -0.75 9.61 -0.29Q8.47 0.18 7.06 0.18Q5.65 0.18 4.51 -0.29Q3.38 -0.75 2.58 -1.61Q1.78 -2.48 1.35 -3.7Q0.91 -4.91 0.91 -6.44Q0.91 -7.95 1.35 -9.18Q1.78 -10.4 2.58 -11.26Q3.38 -12.13 4.51 -12.6Q5.65 -13.07 7.06 -13.07ZM7.06 -1.59Q8.97 -1.59 9.91 -2.86Q10.85 -4.14 10.85 -6.43Q10.85 -8.72 9.91 -10.01Q8.97 -11.29 7.06 -11.29Q6.1 -11.29 5.38 -10.96Q4.67 -10.63 4.2 -10.01Q3.72 -9.39 3.49 -8.48Q3.25 -7.57 3.25 -6.43Q3.25 -5.28 3.49 -4.38Q3.72 -3.48 4.2 -2.86Q4.67 -2.25 5.38 -1.92Q6.1 -1.59 7.06 -1.59Z" fill-rule="nonzero"></path>
<path transform="matrix(1,0,0,1,33.3248,-1.13687e-13)" stroke="none" fill="#2366ff" data-view-type="laser" d="M1.85 0L1.85 -12.87L3.15 -12.87Q3.52 -12.87 3.66 -12.73Q3.8 -12.59 3.85 -12.24L4 -10.24Q4.66 -11.58 5.63 -12.34Q6.6 -13.09 7.91 -13.09Q8.45 -13.09 8.88 -12.97Q9.31 -12.85 9.68 -12.64L9.39 -10.95Q9.3 -10.63 8.99 -10.63Q8.81 -10.63 8.45 -10.75Q8.08 -10.87 7.42 -10.87Q6.24 -10.87 5.44 -10.19Q4.65 -9.5 4.11 -8.19L4.11 0Z" fill-rule="nonzero"></path>
<path transform="matrix(1,0,0,1,43.561,-1.13687e-13)" stroke="none" fill="#2366ff" data-view-type="laser" d="M1.85 0L1.85 -12.87L3.2 -12.87Q3.68 -12.87 3.81 -12.4L3.99 -11Q4.83 -11.93 5.86 -12.5Q6.9 -13.07 8.25 -13.07Q9.31 -13.07 10.12 -12.72Q10.92 -12.37 11.46 -11.73Q12 -11.09 12.28 -10.19Q12.56 -9.28 12.56 -8.19L12.56 0L10.3 0L10.3 -8.19Q10.3 -9.65 9.63 -10.46Q8.97 -11.26 7.59 -11.26Q6.59 -11.26 5.72 -10.78Q4.85 -10.3 4.11 -9.47L4.11 0Z" fill-rule="nonzero"></path></g><g transform="matrix(0.275913,0,0,0.275913,43.193093,59.700763)" stroke="none" fill="#2366ff" data-view-type="laser"><path transform="matrix(1,0,0,1,-5.68434e-14,0)" stroke="none" fill="#2366ff" data-view-type="laser" d="M0.1 -18.2L2.07 -18.2Q2.4 -18.2 2.6 -18.03Q2.81 -17.87 2.91 -17.61L8.05 -4.78Q8.23 -4.34 8.38 -3.84Q8.52 -3.33 8.66 -2.78Q8.78 -3.33 8.91 -3.84Q9.04 -4.34 9.22 -4.78L14.34 -17.61Q14.43 -17.83 14.64 -18.01Q14.86 -18.2 15.18 -18.2L17.16 -18.2L9.74 0L7.52 0Z" fill-rule="nonzero"></path>
<path transform="matrix(1,0,0,1,17.272,0)" stroke="none" fill="#2366ff" data-view-type="laser" d="M4.37 -12.87L4.37 0L2.11 0L2.11 -12.87ZM4.88 -16.9Q4.88 -16.57 4.74 -16.29Q4.61 -16 4.39 -15.78Q4.17 -15.56 3.87 -15.43Q3.58 -15.3 3.25 -15.3Q2.92 -15.3 2.64 -15.43Q2.35 -15.56 2.13 -15.78Q1.91 -16 1.78 -16.29Q1.65 -16.57 1.65 -16.9Q1.65 -17.23 1.78 -17.53Q1.91 -17.83 2.13 -18.05Q2.35 -18.28 2.64 -18.4Q2.92 -18.53 3.25 -18.53Q3.58 -18.53 3.87 -18.4Q4.17 -18.28 4.39 -18.05Q4.61 -17.83 4.74 -17.53Q4.88 -17.23 4.88 -16.9Z" fill-rule="nonzero"></path>
<path transform="matrix(1,0,0,1,23.7744,0)" stroke="none" fill="#2366ff" data-view-type="laser" d="M6.95 -13.07Q8.1 -13.07 9.08 -12.68Q10.06 -12.29 10.77 -11.56Q11.48 -10.83 11.88 -9.76Q12.28 -8.69 12.28 -7.32Q12.28 -6.78 12.17 -6.6Q12.05 -6.43 11.73 -6.43L3.18 -6.43Q3.2 -5.21 3.51 -4.31Q3.81 -3.4 4.34 -2.8Q4.88 -2.2 5.61 -1.9Q6.35 -1.6 7.26 -1.6Q8.12 -1.6 8.73 -1.8Q9.35 -1.99 9.79 -2.22Q10.24 -2.45 10.53 -2.65Q10.83 -2.84 11.05 -2.84Q11.33 -2.84 11.48 -2.63L12.12 -1.8Q11.7 -1.3 11.11 -0.92Q10.53 -0.55 9.86 -0.3Q9.19 -0.06 8.48 0.06Q7.77 0.18 7.07 0.18Q5.74 0.18 4.62 -0.27Q3.49 -0.72 2.67 -1.59Q1.85 -2.46 1.4 -3.75Q0.94 -5.03 0.94 -6.69Q0.94 -8.04 1.35 -9.21Q1.77 -10.38 2.54 -11.23Q3.31 -12.09 4.43 -12.58Q5.55 -13.07 6.95 -13.07ZM7 -11.4Q5.36 -11.4 4.42 -10.46Q3.48 -9.51 3.25 -7.84L10.25 -7.84Q10.25 -8.62 10.03 -9.28Q9.82 -9.93 9.4 -10.41Q8.98 -10.88 8.38 -11.14Q7.77 -11.4 7 -11.4Z" fill-rule="nonzero"></path>
<path transform="matrix(1,0,0,1,37.084,0)" stroke="none" fill="#2366ff" data-view-type="laser" d="M0.18 -12.87L1.96 -12.87Q2.24 -12.87 2.41 -12.73Q2.59 -12.59 2.65 -12.4L5.12 -4.11Q5.22 -3.66 5.31 -3.23Q5.4 -2.81 5.46 -2.37Q5.56 -2.81 5.69 -3.23Q5.82 -3.66 5.96 -4.11L8.67 -12.45Q8.74 -12.64 8.9 -12.76Q9.06 -12.89 9.3 -12.89L10.27 -12.89Q10.53 -12.89 10.69 -12.76Q10.86 -12.64 10.92 -12.45L13.58 -4.11Q13.72 -3.67 13.82 -3.24Q13.93 -2.81 14.03 -2.39Q14.1 -2.81 14.2 -3.26Q14.3 -3.72 14.41 -4.11L16.93 -12.4Q16.99 -12.6 17.17 -12.73Q17.35 -12.87 17.59 -12.87L19.29 -12.87L15.13 0L13.34 0Q13 0 12.88 -0.43L10.03 -9.16Q9.93 -9.45 9.87 -9.75Q9.8 -10.05 9.74 -10.34Q9.68 -10.05 9.61 -9.74Q9.55 -9.44 9.45 -9.14L6.57 -0.43Q6.43 0 6.05 0L4.34 0Z" fill-rule="nonzero"></path></g><g transform="matrix(0.275913,0,0,0.275913,62.741601,59.700763)" stroke="none" fill="#2366ff" data-view-type="laser"><path transform="matrix(1,0,0,1,-5.68434e-14,-5.68434e-14)" stroke="none" fill="#2366ff" data-view-type="laser" d="M11.53 -15.35Q11.42 -15.16 11.29 -15.07Q11.16 -14.97 10.96 -14.97Q10.74 -14.97 10.46 -15.19Q10.17 -15.41 9.73 -15.67Q9.3 -15.93 8.68 -16.14Q8.06 -16.36 7.19 -16.36Q6.36 -16.36 5.73 -16.14Q5.09 -15.91 4.67 -15.53Q4.24 -15.15 4.03 -14.64Q3.81 -14.12 3.81 -13.53Q3.81 -12.76 4.18 -12.26Q4.56 -11.76 5.18 -11.4Q5.79 -11.05 6.57 -10.79Q7.35 -10.53 8.17 -10.25Q8.99 -9.97 9.77 -9.62Q10.55 -9.27 11.17 -8.74Q11.79 -8.2 12.16 -7.43Q12.53 -6.65 12.53 -5.52Q12.53 -4.33 12.13 -3.28Q11.72 -2.24 10.94 -1.46Q10.16 -0.69 9.02 -0.24Q7.89 0.2 6.44 0.2Q4.67 0.2 3.22 -0.44Q1.77 -1.08 0.74 -2.17L1.45 -3.34Q1.55 -3.48 1.7 -3.58Q1.84 -3.67 2.02 -3.67Q2.29 -3.67 2.63 -3.38Q2.97 -3.1 3.49 -2.76Q4 -2.41 4.73 -2.13Q5.46 -1.84 6.52 -1.84Q7.39 -1.84 8.08 -2.08Q8.76 -2.32 9.24 -2.76Q9.72 -3.2 9.97 -3.81Q10.22 -4.42 10.22 -5.17Q10.22 -5.99 9.85 -6.52Q9.47 -7.05 8.86 -7.4Q8.25 -7.76 7.47 -8.01Q6.69 -8.25 5.87 -8.52Q5.05 -8.78 4.27 -9.12Q3.49 -9.46 2.88 -10.01Q2.27 -10.55 1.9 -11.37Q1.52 -12.19 1.52 -13.4Q1.52 -14.36 1.9 -15.27Q2.27 -16.17 2.98 -16.87Q3.7 -17.56 4.74 -17.98Q5.79 -18.4 7.15 -18.4Q8.67 -18.4 9.93 -17.92Q11.19 -17.44 12.13 -16.52Z" fill-rule="nonzero"></path>
<path transform="matrix(1,0,0,1,13.462,-5.68434e-14)" stroke="none" fill="#2366ff" data-view-type="laser" d="M1.85 4.36L1.85 -12.87L3.2 -12.87Q3.68 -12.87 3.81 -12.4L4 -10.87Q4.83 -11.87 5.89 -12.48Q6.95 -13.09 8.33 -13.09Q9.44 -13.09 10.34 -12.67Q11.24 -12.24 11.87 -11.41Q12.51 -10.58 12.85 -9.35Q13.2 -8.12 13.2 -6.52Q13.2 -5.09 12.81 -3.87Q12.43 -2.64 11.72 -1.75Q11.01 -0.85 9.98 -0.34Q8.94 0.18 7.65 0.18Q6.45 0.18 5.61 -0.22Q4.76 -0.61 4.11 -1.33L4.11 4.36ZM7.58 -11.26Q6.48 -11.26 5.65 -10.76Q4.81 -10.25 4.11 -9.32L4.11 -3.1Q4.74 -2.26 5.48 -1.92Q6.22 -1.57 7.14 -1.57Q8.93 -1.57 9.89 -2.86Q10.86 -4.14 10.86 -6.52Q10.86 -7.77 10.64 -8.67Q10.41 -9.58 9.99 -10.15Q9.58 -10.73 8.97 -11Q8.36 -11.26 7.58 -11.26Z" fill-rule="nonzero"></path>
<path transform="matrix(1,0,0,1,27.4828,-5.68434e-14)" stroke="none" fill="#2366ff" data-view-type="laser" d="M6.95 -13.07Q8.1 -13.07 9.08 -12.68Q10.06 -12.29 10.77 -11.56Q11.48 -10.83 11.88 -9.76Q12.28 -8.69 12.28 -7.32Q12.28 -6.78 12.17 -6.6Q12.05 -6.43 11.73 -6.43L3.18 -6.43Q3.2 -5.21 3.51 -4.31Q3.81 -3.4 4.34 -2.8Q4.88 -2.2 5.61 -1.9Q6.35 -1.6 7.26 -1.6Q8.12 -1.6 8.73 -1.8Q9.35 -1.99 9.79 -2.22Q10.24 -2.45 10.53 -2.65Q10.83 -2.84 11.05 -2.84Q11.33 -2.84 11.48 -2.63L12.12 -1.8Q11.7 -1.3 11.11 -0.92Q10.53 -0.55 9.86 -0.3Q9.19 -0.06 8.48 0.06Q7.77 0.18 7.07 0.18Q5.74 0.18 4.62 -0.27Q3.49 -0.72 2.67 -1.59Q1.85 -2.46 1.4 -3.75Q0.94 -5.03 0.94 -6.69Q0.94 -8.04 1.35 -9.21Q1.77 -10.38 2.54 -11.23Q3.31 -12.09 4.43 -12.58Q5.55 -13.07 6.95 -13.07ZM7 -11.4Q5.36 -11.4 4.42 -10.46Q3.48 -9.51 3.25 -7.84L10.25 -7.84Q10.25 -8.62 10.03 -9.28Q9.82 -9.93 9.4 -10.41Q8.98 -10.88 8.38 -11.14Q7.77 -11.4 7 -11.4Z" fill-rule="nonzero"></path>
<path transform="matrix(1,0,0,1,40.7924,-5.68434e-14)" stroke="none" fill="#2366ff" data-view-type="laser" d="M6.95 -13.07Q8.1 -13.07 9.08 -12.68Q10.06 -12.29 10.77 -11.56Q11.48 -10.83 11.88 -9.76Q12.28 -8.69 12.28 -7.32Q12.28 -6.78 12.17 -6.6Q12.05 -6.43 11.73 -6.43L3.18 -6.43Q3.2 -5.21 3.51 -4.31Q3.81 -3.4 4.34 -2.8Q4.88 -2.2 5.61 -1.9Q6.35 -1.6 7.26 -1.6Q8.12 -1.6 8.73 -1.8Q9.35 -1.99 9.79 -2.22Q10.24 -2.45 10.53 -2.65Q10.83 -2.84 11.05 -2.84Q11.33 -2.84 11.48 -2.63L12.12 -1.8Q11.7 -1.3 11.11 -0.92Q10.53 -0.55 9.86 -0.3Q9.19 -0.06 8.48 0.06Q7.77 0.18 7.07 0.18Q5.74 0.18 4.62 -0.27Q3.49 -0.72 2.67 -1.59Q1.85 -2.46 1.4 -3.75Q0.94 -5.03 0.94 -6.69Q0.94 -8.04 1.35 -9.21Q1.77 -10.38 2.54 -11.23Q3.31 -12.09 4.43 -12.58Q5.55 -13.07 6.95 -13.07ZM7 -11.4Q5.36 -11.4 4.42 -10.46Q3.48 -9.51 3.25 -7.84L10.25 -7.84Q10.25 -8.62 10.03 -9.28Q9.82 -9.93 9.4 -10.41Q8.98 -10.88 8.38 -11.14Q7.77 -11.4 7 -11.4Z" fill-rule="nonzero"></path>
<path transform="matrix(1,0,0,1,54.102,-5.68434e-14)" stroke="none" fill="#2366ff" data-view-type="laser" d="M10.91 0Q10.43 0 10.3 -0.47L10.1 -2.03Q9.27 -1.03 8.21 -0.43Q7.15 0.18 5.78 0.18Q4.67 0.18 3.77 -0.25Q2.87 -0.67 2.24 -1.5Q1.6 -2.32 1.26 -3.56Q0.91 -4.79 0.91 -6.39Q0.91 -7.81 1.3 -9.04Q1.68 -10.26 2.39 -11.16Q3.11 -12.06 4.14 -12.58Q5.17 -13.09 6.48 -13.09Q7.66 -13.09 8.5 -12.69Q9.33 -12.29 9.99 -11.57L9.99 -18.71L12.26 -18.71L12.26 0ZM6.53 -1.65Q7.63 -1.65 8.46 -2.16Q9.3 -2.67 9.99 -3.59L9.99 -9.82Q9.37 -10.66 8.63 -10.99Q7.89 -11.33 6.99 -11.33Q5.18 -11.33 4.22 -10.05Q3.25 -8.76 3.25 -6.39Q3.25 -5.13 3.47 -4.24Q3.68 -3.34 4.1 -2.76Q4.52 -2.18 5.13 -1.92Q5.74 -1.65 6.53 -1.65Z" fill-rule="nonzero"></path></g><path transform="matrix(0.0253628,0,0,0.0253628,25.889129,51.569267)" stroke="none" fill="#2366ff" data-view-type="laser" d="M 308.491 120.865 C 301.59149 124.19186 295.96446 131.4091 297.06225 139.4077 C 296.16636 206.10081 296.60723 272.80266 296.5 339.5 C 299.17333 346.89465 304.64713 353.86908 312.8931 355.08218 C 322.38604 357.17615 332.07368 350.83194 334.89956 341.69748 C 337.04214 337.5397 335.48165 332.53758 335.95849 328 C 335.81525 265.34239 336.43058 202.67663 335.38541 140.02597 C 337.01645 127.77432 324.57145 116.48929 312.5211 119.52584 C 311.13453 119.82484 309.7821 120.27824 308.491 120.865 z M 387.5 120.896 C 376.71464 124.72653 375.64897 136.22465 376.42885 145.93843 C 375.70167 210.98253 376.10501 276.03297 376 341.08 C 378.99542 348.95636 386.16558 355.35607 394.93576 355.30495 C 404.71369 356.04327 414.44937 348.02196 414.05243 337.88549 C 415.67423 303.98526 414.63924 270.01577 414.80364 236.08572 C 414.70245 201.44785 414.60121 166.80987 414.5 132.172 C 410.21754 124.9121 403.13933 118.22303 394.04894 119.19698 C 391.78641 119.35738 389.55693 119.94162 387.5 120.896 z M 84.02 145.284 C 76.946658 150.29654 80.586772 161.23956 79.281934 168.78376 C 78.995461 221.2473 79.436026 273.71274 79.5 326.177 C 84.555373 332.37114 92.057516 328.72551 97.578734 325.14524 C 140.51863 302.41305 183.10889 278.96202 224.85516 254.09947 C 235.76685 249.23118 239.21839 233.60122 230.80683 224.8726 C 220.99033 216.69359 209.09612 211.32249 198.20927 204.68231 C 162.25587 184.57408 126.39214 164.28076 90.064969 144.85847 C 88.144305 143.30397 85.894663 144.35472 84.02 145.284 z " fill-rule="nonzero"></path></svg>